<svg xmlns="http://www.w3.org/2000/svg" viewBox="16 0 2427 512" role="img" aria-label="CallGuard AI — Smarter calls. Safer business."><g stroke-linejoin="round"><path d="M256 25 C310 45 376 60 430 68 Q451 72 451 92 L451 235 C451 345 372 432 256 491 C140 432 61 345 61 235 L61 92 Q61 72 82 68 C136 60 202 45 256 25 Z" fill="none" stroke="#4A9E6E" stroke-width="30"></path><path d="M256 64 C306 83 362 94 408 101 Q413 103 413 122 L413 237 C413 330 348 404 256 449 C164 404 99 330 99 237 L99 122 Q99 103 104 101 C150 94 206 83 256 64 Z" fill="#FFFFFF" stroke="#E6EFE8" stroke-width="22"></path><rect x="152" y="235" width="24" height="42" rx="12" fill="#4A9E6E"></rect><rect x="198" y="202" width="24" height="108" rx="12" fill="#4A9E6E"></rect><rect x="244" y="156" width="24" height="200" rx="12" fill="#4A9E6E"></rect><rect x="290" y="202" width="24" height="108" rx="12" fill="#4A9E6E"></rect><rect x="336" y="235" width="24" height="42" rx="12" fill="#4A9E6E"></rect></g><path d="M606.5 256.9Q606.5 227.9 620.0 204.9Q633.5 181.9 656.6 169.0Q679.8 156.1 707.3 156.1L707.3 156.1Q738.9 156.1 763.4 171.5Q788.0 187.0 799.1 215.4L799.1 215.4L760.2 215.4Q752.5 199.8 738.9 192.1Q725.2 184.5 707.3 184.5L707.3 184.5Q687.7 184.5 672.4 193.3Q657.1 202.1 648.4 218.5Q639.7 235.0 639.7 256.9L639.7 256.9Q639.7 278.8 648.4 295.2Q657.1 311.7 672.4 320.6Q687.7 329.6 707.3 329.6L707.3 329.6Q725.2 329.6 738.9 321.9Q752.5 314.3 760.2 298.6L760.2 298.6L799.1 298.6Q788.0 327.0 763.4 342.4Q738.9 357.7 707.3 357.7L707.3 357.7Q679.5 357.7 656.5 344.8Q633.5 331.9 620.0 308.9Q606.5 285.9 606.5 256.9L606.5 256.9ZM826.0 277.0Q826.0 253.5 835.8 235.3Q845.6 217.1 862.5 207.0Q879.4 197.0 899.9 197.0L899.9 197.0Q918.3 197.0 932.1 204.2Q945.9 211.4 954.1 222.2L954.1 222.2L954.1 199.5L986.8 199.5L986.8 356L954.1 356L954.1 332.7Q945.9 343.8 931.7 351.2Q917.5 358.6 899.3 358.6L899.3 358.6Q879.1 358.6 862.4 348.2Q845.6 337.8 835.8 319.2Q826.0 300.6 826.0 277.0L826.0 277.0ZM954.1 277.6Q954.1 261.4 947.4 249.5Q940.8 237.6 930.0 231.3Q919.2 225.1 906.7 225.1L906.7 225.1Q894.2 225.1 883.4 231.2Q872.6 237.3 865.9 249.1Q859.3 260.9 859.3 277.0L859.3 277.0Q859.3 293.2 865.9 305.4Q872.6 317.7 883.5 324.1Q894.5 330.4 906.7 330.4L906.7 330.4Q919.2 330.4 930.0 324.2Q940.8 317.9 947.4 305.9Q954.1 293.8 954.1 277.6L954.1 277.6ZM1029.4 145.8L1061.8 145.8L1061.8 356L1029.4 356L1029.4 145.8ZM1104.4 145.8L1136.7 145.8L1136.7 356L1104.4 356L1104.4 145.8ZM1361.1 215.4L1322.2 215.4Q1314.5 200.7 1300.9 193.1Q1287.3 185.6 1269.4 185.6L1269.4 185.6Q1249.8 185.6 1234.4 194.4Q1219.1 203.2 1210.4 219.4Q1201.8 235.6 1201.8 256.9L1201.8 256.9Q1201.8 278.2 1210.4 294.5Q1219.1 310.8 1234.4 319.6Q1249.8 328.5 1269.4 328.5L1269.4 328.5Q1295.8 328.5 1312.2 313.7Q1328.7 298.9 1332.4 273.6L1332.4 273.6L1258.3 273.6L1258.3 247.8L1367.1 247.8L1367.1 273.1Q1363.9 296.1 1350.7 315.4Q1337.5 334.7 1316.4 346.2Q1295.2 357.7 1269.4 357.7L1269.4 357.7Q1241.5 357.7 1218.5 344.8Q1195.5 331.9 1182.0 308.9Q1168.5 285.9 1168.5 256.9L1168.5 256.9Q1168.5 227.9 1182.0 204.9Q1195.5 181.9 1218.7 169.0Q1241.8 156.1 1269.4 156.1L1269.4 156.1Q1300.9 156.1 1325.5 171.5Q1350.0 187.0 1361.1 215.4L1361.1 215.4ZM1508.2 199.5L1540.6 199.5L1540.6 356L1508.2 356L1508.2 337.5Q1500.5 347.2 1488.2 352.7Q1475.8 358.3 1461.9 358.3L1461.9 358.3Q1443.5 358.3 1428.8 350.6Q1414.2 342.9 1405.8 327.9Q1397.4 312.8 1397.4 291.5L1397.4 291.5L1397.4 199.5L1429.5 199.5L1429.5 286.7Q1429.5 307.7 1440.0 318.9Q1450.6 330.2 1468.7 330.2L1468.7 330.2Q1486.9 330.2 1497.6 318.9Q1508.2 307.7 1508.2 286.7L1508.2 286.7L1508.2 199.5ZM1572.4 277.0Q1572.4 253.5 1582.2 235.3Q1592.0 217.1 1608.9 207.0Q1625.8 197.0 1646.2 197.0L1646.2 197.0Q1664.7 197.0 1678.5 204.2Q1692.2 211.4 1700.5 222.2L1700.5 222.2L1700.5 199.5L1733.1 199.5L1733.1 356L1700.5 356L1700.5 332.7Q1692.2 343.8 1678.0 351.2Q1663.8 358.6 1645.7 358.6L1645.7 358.6Q1625.5 358.6 1608.7 348.2Q1592.0 337.8 1582.2 319.2Q1572.4 300.6 1572.4 277.0L1572.4 277.0ZM1700.5 277.6Q1700.5 261.4 1693.8 249.5Q1687.1 237.6 1676.3 231.3Q1665.5 225.1 1653.0 225.1L1653.0 225.1Q1640.6 225.1 1629.8 231.2Q1619.0 237.3 1612.3 249.1Q1605.6 260.9 1605.6 277.0L1605.6 277.0Q1605.6 293.2 1612.3 305.4Q1619.0 317.7 1629.9 324.1Q1640.8 330.4 1653.0 330.4L1653.0 330.4Q1665.5 330.4 1676.3 324.2Q1687.1 317.9 1693.8 305.9Q1700.5 293.8 1700.5 277.6L1700.5 277.6ZM1808.1 222.2Q1815.2 210.3 1827.0 203.6Q1838.8 197.0 1855.0 197.0L1855.0 197.0L1855.0 230.5L1846.7 230.5Q1827.7 230.5 1817.9 240.1Q1808.1 249.8 1808.1 273.6L1808.1 273.6L1808.1 356L1775.7 356L1775.7 199.5L1808.1 199.5L1808.1 222.2ZM1874 277.0Q1874 253.5 1883.8 235.3Q1893.6 217.1 1910.5 207.0Q1927.4 197.0 1948.1 197.0L1948.1 197.0Q1963.5 197.0 1978.4 203.6Q1993.3 210.3 2002.1 221.4L2002.1 221.4L2002.1 145.8L2034.7 145.8L2034.7 356L2002.1 356L2002.1 332.4Q1994.1 343.8 1980.1 351.2Q1966.0 358.6 1947.8 358.6L1947.8 358.6Q1927.4 358.6 1910.5 348.2Q1893.6 337.8 1883.8 319.2Q1874 300.6 1874 277.0L1874 277.0ZM2002.1 277.6Q2002.1 261.4 1995.4 249.5Q1988.7 237.6 1977.9 231.3Q1967.2 225.1 1954.7 225.1L1954.7 225.1Q1942.2 225.1 1931.4 231.2Q1920.6 237.3 1913.9 249.1Q1907.2 260.9 1907.2 277.0L1907.2 277.0Q1907.2 293.2 1913.9 305.4Q1920.6 317.7 1931.5 324.1Q1942.4 330.4 1954.7 330.4L1954.7 330.4Q1967.2 330.4 1977.9 324.2Q1988.7 317.9 1995.4 305.9Q2002.1 293.8 2002.1 277.6L2002.1 277.6Z" fill="#E6EFE8"></path><path d="M2284.4 356L2270.2 315.7L2187.5 315.7L2173.3 356L2139.5 356L2210.3 158.3L2247.7 158.3L2318.5 356L2284.4 356ZM2196.6 289.3L2261.1 289.3L2229 197.5L2196.6 289.3ZM2349.1 158.6L2381.5 158.6L2381.5 356L2349.1 356L2349.1 158.6Z" fill="#4A9E6E"></path></svg>