<svg xmlns="http://www.w3.org/2000/svg" viewBox="16 0 2427 512" role="img" aria-label="CallGuard AI — Smarter calls. Safer business."><g stroke-linejoin="round"><path d="M256 25 C310 45 376 60 430 68 Q451 72 451 92 L451 235 C451 345 372 432 256 491 C140 432 61 345 61 235 L61 92 Q61 72 82 68 C136 60 202 45 256 25 Z" fill="none" stroke="#4A9E6E" stroke-width="30"></path><path d="M256 64 C306 83 362 94 408 101 Q413 103 413 122 L413 237 C413 330 348 404 256 449 C164 404 99 330 99 237 L99 122 Q99 103 104 101 C150 94 206 83 256 64 Z" fill="#FFFFFF" stroke="#1A2E1A" stroke-width="22"></path><rect x="152" y="235" width="24" height="42" rx="12" fill="#4A9E6E"></rect><rect x="198" y="202" width="24" height="108" rx="12" fill="#4A9E6E"></rect><rect x="244" y="156" width="24" height="200" rx="12" fill="#4A9E6E"></rect><rect x="290" y="202" width="24" height="108" rx="12" fill="#4A9E6E"></rect><rect x="336" y="235" width="24" height="42" rx="12" fill="#4A9E6E"></rect></g><path d="M606.5 200.9Q606.5 171.9 620.0 148.9Q633.5 125.9 656.6 113.0Q679.8 100.1 707.3 100.1L707.3 100.1Q738.9 100.1 763.4 115.5Q788.0 131.0 799.1 159.4L799.1 159.4L760.2 159.4Q752.5 143.8 738.9 136.1Q725.2 128.5 707.3 128.5L707.3 128.5Q687.7 128.5 672.4 137.3Q657.1 146.1 648.4 162.5Q639.7 179.0 639.7 200.9L639.7 200.9Q639.7 222.8 648.4 239.2Q657.1 255.7 672.4 264.6Q687.7 273.6 707.3 273.6L707.3 273.6Q725.2 273.6 738.9 265.9Q752.5 258.3 760.2 242.6L760.2 242.6L799.1 242.6Q788.0 271.0 763.4 286.4Q738.9 301.7 707.3 301.7L707.3 301.7Q679.5 301.7 656.5 288.8Q633.5 275.9 620.0 252.9Q606.5 229.9 606.5 200.9L606.5 200.9ZM826.0 221.0Q826.0 197.5 835.8 179.3Q845.6 161.1 862.5 151.0Q879.4 141.0 899.9 141.0L899.9 141.0Q918.3 141.0 932.1 148.2Q945.9 155.4 954.1 166.2L954.1 166.2L954.1 143.5L986.8 143.5L986.8 300L954.1 300L954.1 276.7Q945.9 287.8 931.7 295.2Q917.5 302.6 899.3 302.6L899.3 302.6Q879.1 302.6 862.4 292.2Q845.6 281.8 835.8 263.2Q826.0 244.6 826.0 221.0L826.0 221.0ZM954.1 221.6Q954.1 205.4 947.4 193.5Q940.8 181.6 930.0 175.3Q919.2 169.1 906.7 169.1L906.7 169.1Q894.2 169.1 883.4 175.2Q872.6 181.3 865.9 193.1Q859.3 204.9 859.3 221.0L859.3 221.0Q859.3 237.2 865.9 249.4Q872.6 261.7 883.5 268.1Q894.5 274.4 906.7 274.4L906.7 274.4Q919.2 274.4 930.0 268.2Q940.8 261.9 947.4 249.9Q954.1 237.8 954.1 221.6L954.1 221.6ZM1029.4 89.8L1061.8 89.8L1061.8 300L1029.4 300L1029.4 89.8ZM1104.4 89.8L1136.7 89.8L1136.7 300L1104.4 300L1104.4 89.8ZM1361.1 159.4L1322.2 159.4Q1314.5 144.7 1300.9 137.1Q1287.3 129.6 1269.4 129.6L1269.4 129.6Q1249.8 129.6 1234.4 138.4Q1219.1 147.2 1210.4 163.4Q1201.8 179.6 1201.8 200.9L1201.8 200.9Q1201.8 222.2 1210.4 238.5Q1219.1 254.8 1234.4 263.6Q1249.8 272.5 1269.4 272.5L1269.4 272.5Q1295.8 272.5 1312.2 257.7Q1328.7 242.9 1332.4 217.6L1332.4 217.6L1258.3 217.6L1258.3 191.8L1367.1 191.8L1367.1 217.1Q1363.9 240.1 1350.7 259.4Q1337.5 278.7 1316.4 290.2Q1295.2 301.7 1269.4 301.7L1269.4 301.7Q1241.5 301.7 1218.5 288.8Q1195.5 275.9 1182.0 252.9Q1168.5 229.9 1168.5 200.9L1168.5 200.9Q1168.5 171.9 1182.0 148.9Q1195.5 125.9 1218.7 113.0Q1241.8 100.1 1269.4 100.1L1269.4 100.1Q1300.9 100.1 1325.5 115.5Q1350.0 131.0 1361.1 159.4L1361.1 159.4ZM1508.2 143.5L1540.6 143.5L1540.6 300L1508.2 300L1508.2 281.5Q1500.5 291.2 1488.2 296.7Q1475.8 302.3 1461.9 302.3L1461.9 302.3Q1443.5 302.3 1428.8 294.6Q1414.2 286.9 1405.8 271.9Q1397.4 256.8 1397.4 235.5L1397.4 235.5L1397.4 143.5L1429.5 143.5L1429.5 230.7Q1429.5 251.7 1440.0 262.9Q1450.6 274.2 1468.7 274.2L1468.7 274.2Q1486.9 274.2 1497.6 262.9Q1508.2 251.7 1508.2 230.7L1508.2 230.7L1508.2 143.5ZM1572.4 221.0Q1572.4 197.5 1582.2 179.3Q1592.0 161.1 1608.9 151.0Q1625.8 141.0 1646.2 141.0L1646.2 141.0Q1664.7 141.0 1678.5 148.2Q1692.2 155.4 1700.5 166.2L1700.5 166.2L1700.5 143.5L1733.1 143.5L1733.1 300L1700.5 300L1700.5 276.7Q1692.2 287.8 1678.0 295.2Q1663.8 302.6 1645.7 302.6L1645.7 302.6Q1625.5 302.6 1608.7 292.2Q1592.0 281.8 1582.2 263.2Q1572.4 244.6 1572.4 221.0L1572.4 221.0ZM1700.5 221.6Q1700.5 205.4 1693.8 193.5Q1687.1 181.6 1676.3 175.3Q1665.5 169.1 1653.0 169.1L1653.0 169.1Q1640.6 169.1 1629.8 175.2Q1619.0 181.3 1612.3 193.1Q1605.6 204.9 1605.6 221.0L1605.6 221.0Q1605.6 237.2 1612.3 249.4Q1619.0 261.7 1629.9 268.1Q1640.8 274.4 1653.0 274.4L1653.0 274.4Q1665.5 274.4 1676.3 268.2Q1687.1 261.9 1693.8 249.9Q1700.5 237.8 1700.5 221.6L1700.5 221.6ZM1808.1 166.2Q1815.2 154.3 1827.0 147.6Q1838.8 141.0 1855.0 141.0L1855.0 141.0L1855.0 174.5L1846.7 174.5Q1827.7 174.5 1817.9 184.1Q1808.1 193.8 1808.1 217.6L1808.1 217.6L1808.1 300L1775.7 300L1775.7 143.5L1808.1 143.5L1808.1 166.2ZM1874 221.0Q1874 197.5 1883.8 179.3Q1893.6 161.1 1910.5 151.0Q1927.4 141.0 1948.1 141.0L1948.1 141.0Q1963.5 141.0 1978.4 147.6Q1993.3 154.3 2002.1 165.4L2002.1 165.4L2002.1 89.8L2034.7 89.8L2034.7 300L2002.1 300L2002.1 276.4Q1994.1 287.8 1980.1 295.2Q1966.0 302.6 1947.8 302.6L1947.8 302.6Q1927.4 302.6 1910.5 292.2Q1893.6 281.8 1883.8 263.2Q1874 244.6 1874 221.0L1874 221.0ZM2002.1 221.6Q2002.1 205.4 1995.4 193.5Q1988.7 181.6 1977.9 175.3Q1967.2 169.1 1954.7 169.1L1954.7 169.1Q1942.2 169.1 1931.4 175.2Q1920.6 181.3 1913.9 193.1Q1907.2 204.9 1907.2 221.0L1907.2 221.0Q1907.2 237.2 1913.9 249.4Q1920.6 261.7 1931.5 268.1Q1942.4 274.4 1954.7 274.4L1954.7 274.4Q1967.2 274.4 1977.9 268.2Q1988.7 261.9 1995.4 249.9Q2002.1 237.8 2002.1 221.6L2002.1 221.6Z" fill="#1A2E1A"></path><path d="M2284.4 300L2270.2 259.7L2187.5 259.7L2173.3 300L2139.5 300L2210.3 102.3L2247.7 102.3L2318.5 300L2284.4 300ZM2196.6 233.3L2261.1 233.3L2229 141.5L2196.6 233.3ZM2349.1 102.6L2381.5 102.6L2381.5 300L2349.1 300L2349.1 102.6Z" fill="#4A9E6E"></path><path d="M630.4 382.4L623.1 382.4Q622.8 379.7 620.7 378.2Q618.5 376.7 615.1 376.7L615.1 376.7Q612.7 376.7 611.0 377.4Q609.3 378.2 608.4 379.4Q607.5 380.6 607.5 382.2L607.5 382.2Q607.5 383.5 608.1 384.5Q608.7 385.5 609.8 386.1Q610.8 386.8 612.1 387.3Q613.4 387.7 614.7 388.0L614.7 388.0L618.6 389.0Q621.0 389.6 623.2 390.5Q625.4 391.5 627.2 392.9Q629.0 394.3 630.0 396.4Q631.0 398.4 631.0 401.2L631.0 401.2Q631.0 404.9 629.1 407.7Q627.2 410.5 623.7 412.1Q620.1 413.6 615.0 413.6L615.0 413.6Q610.1 413.6 606.5 412.1Q602.9 410.6 600.8 407.7Q598.8 404.7 598.6 400.5L598.6 400.5L606.2 400.5Q606.3 402.7 607.5 404.2Q608.7 405.7 610.6 406.4Q612.6 407.1 614.9 407.1L614.9 407.1Q617.4 407.1 619.3 406.4Q621.2 405.6 622.3 404.3Q623.4 402.9 623.4 401.1L623.4 401.1Q623.4 399.4 622.4 398.4Q621.5 397.3 619.8 396.6Q618.1 395.8 615.8 395.2L615.8 395.2L611.0 394.0Q605.8 392.7 602.8 389.9Q599.7 387.2 599.7 382.7L599.7 382.7Q599.7 379.0 601.8 376.2Q603.8 373.4 607.3 371.8Q610.8 370.2 615.2 370.2L615.2 370.2Q619.7 370.2 623.1 371.8Q626.5 373.4 628.4 376.1Q630.4 378.9 630.4 382.4L630.4 382.4ZM665.0 413L665.0 370.8L674.4 370.8L686.9 401.4L687.4 401.4L699.9 370.8L709.2 370.8L709.2 413L701.9 413L701.9 384.0L701.5 384.0L689.9 412.9L684.4 412.9L672.7 384.0L672.3 384.0L672.3 413L665.0 413ZM761.4 379.5L750.2 413L742.0 413L756.9 370.8L766.3 370.8L781.2 413L773.0 413L761.7 379.5L761.4 379.5ZM750.4 402.6L750.4 396.5L772.7 396.5L772.7 402.6L750.4 402.6ZM821.6 413L813.9 413L813.9 370.8L829.7 370.8Q834.6 370.8 837.9 372.5Q841.2 374.2 842.9 377.2Q844.6 380.3 844.6 384.3L844.6 384.3Q844.6 388.4 842.9 391.3Q841.2 394.3 837.8 395.9Q834.5 397.6 829.6 397.6L829.6 397.6L818.4 397.6L818.4 391.2L828.6 391.2Q831.4 391.2 833.3 390.4Q835.1 389.6 835.9 388.1Q836.8 386.6 836.8 384.3L836.8 384.3Q836.8 382.1 835.9 380.5Q835.1 378.9 833.2 378.0Q831.4 377.2 828.6 377.2L828.6 377.2L821.6 377.2L821.6 413ZM827.4 393.9L835.7 393.9L846.2 413L837.6 413L827.4 393.9ZM890.0 377.2L877.0 377.2L877.0 370.8L910.6 370.8L910.6 377.2L897.6 377.2L897.6 413L890.0 413L890.0 377.2ZM971.9 413L944.3 413L944.3 370.8L971.7 370.8L971.7 377.2L951.9 377.2L951.9 388.7L970.3 388.7L970.3 395.1L951.9 395.1L951.9 406.6L971.9 406.6L971.9 413ZM1014.4 413L1006.7 413L1006.7 370.8L1022.6 370.8Q1027.4 370.8 1030.7 372.5Q1034.0 374.2 1035.7 377.2Q1037.4 380.3 1037.4 384.3L1037.4 384.3Q1037.4 388.4 1035.7 391.3Q1034.0 394.3 1030.6 395.9Q1027.3 397.6 1022.4 397.6L1022.4 397.6L1011.2 397.6L1011.2 391.2L1021.4 391.2Q1024.3 391.2 1026.1 390.4Q1027.9 389.6 1028.8 388.1Q1029.6 386.6 1029.6 384.3L1029.6 384.3Q1029.6 382.1 1028.7 380.5Q1027.9 378.9 1026.1 378.0Q1024.2 377.2 1021.4 377.2L1021.4 377.2L1014.4 377.2L1014.4 413ZM1020.2 393.9L1028.5 393.9L1039.0 413L1030.4 413L1020.2 393.9ZM1149.3 385.1L1149.3 385.1L1141.6 385.1Q1141.3 383.2 1140.4 381.7Q1139.5 380.2 1138.2 379.2Q1136.9 378.2 1135.2 377.6Q1133.6 377.1 1131.6 377.1L1131.6 377.1Q1128.2 377.1 1125.5 378.8Q1122.9 380.5 1121.4 383.8Q1119.9 387.2 1119.9 391.9L1119.9 391.9Q1119.9 396.7 1121.4 400.1Q1122.9 403.4 1125.5 405.0Q1128.2 406.7 1131.6 406.7L1131.6 406.7Q1133.5 406.7 1135.1 406.2Q1136.8 405.7 1138.1 404.7Q1139.5 403.7 1140.4 402.3Q1141.3 400.8 1141.6 399.0L1141.6 399.0L1149.3 399.0Q1148.9 402.0 1147.5 404.7Q1146.1 407.3 1143.7 409.3Q1141.4 411.3 1138.3 412.5Q1135.3 413.6 1131.5 413.6L1131.5 413.6Q1125.9 413.6 1121.6 411.0Q1117.2 408.4 1114.7 403.6Q1112.2 398.7 1112.2 391.9L1112.2 391.9Q1112.2 385.1 1114.7 380.2Q1117.2 375.4 1121.6 372.8Q1126.0 370.2 1131.5 370.2L1131.5 370.2Q1135.0 370.2 1138.0 371.2Q1141.1 372.2 1143.4 374.1Q1145.8 376.0 1147.3 378.8Q1148.9 381.5 1149.3 385.1ZM1199.7 379.5L1188.4 413L1180.3 413L1195.1 370.8L1204.6 370.8L1219.4 413L1211.3 413L1200.0 379.5L1199.7 379.5ZM1188.7 402.6L1188.7 396.5L1211.0 396.5L1211.0 402.6L1188.7 402.6ZM1278.4 413L1252.2 413L1252.2 370.8L1259.8 370.8L1259.8 406.6L1278.4 406.6L1278.4 413ZM1338.4 413L1312.2 413L1312.2 370.8L1319.9 370.8L1319.9 406.6L1338.4 406.6L1338.4 413ZM1402.5 382.4L1395.2 382.4Q1394.9 379.7 1392.7 378.2Q1390.6 376.7 1387.2 376.7L1387.2 376.7Q1384.8 376.7 1383.1 377.4Q1381.4 378.2 1380.5 379.4Q1379.6 380.6 1379.6 382.2L1379.6 382.2Q1379.6 383.5 1380.2 384.5Q1380.8 385.5 1381.8 386.1Q1382.9 386.8 1384.2 387.3Q1385.4 387.7 1386.7 388.0L1386.7 388.0L1390.7 389.0Q1393.1 389.6 1395.3 390.5Q1397.5 391.5 1399.3 392.9Q1401.0 394.3 1402.1 396.4Q1403.1 398.4 1403.1 401.2L1403.1 401.2Q1403.1 404.9 1401.2 407.7Q1399.3 410.5 1395.7 412.1Q1392.2 413.6 1387.1 413.6L1387.1 413.6Q1382.2 413.6 1378.5 412.1Q1374.9 410.6 1372.9 407.7Q1370.9 404.7 1370.7 400.5L1370.7 400.5L1378.2 400.5Q1378.4 402.7 1379.6 404.2Q1380.8 405.7 1382.7 406.4Q1384.6 407.1 1387.0 407.1L1387.0 407.1Q1389.5 407.1 1391.4 406.4Q1393.3 405.6 1394.4 404.3Q1395.4 402.9 1395.4 401.1L1395.4 401.1Q1395.4 399.4 1394.5 398.4Q1393.5 397.3 1391.8 396.6Q1390.1 395.8 1387.9 395.2L1387.9 395.2L1383.1 394.0Q1377.9 392.7 1374.8 389.9Q1371.8 387.2 1371.8 382.7L1371.8 382.7Q1371.8 379.0 1373.9 376.2Q1375.9 373.4 1379.4 371.8Q1382.9 370.2 1387.3 370.2L1387.3 370.2Q1391.8 370.2 1395.2 371.8Q1398.6 373.4 1400.5 376.1Q1402.4 378.9 1402.5 382.4L1402.5 382.4ZM1553.0 382.4L1545.6 382.4Q1545.3 379.7 1543.2 378.2Q1541.1 376.7 1537.7 376.7L1537.7 376.7Q1535.3 376.7 1533.6 377.4Q1531.9 378.2 1531.0 379.4Q1530.1 380.6 1530.0 382.2L1530.0 382.2Q1530.0 383.5 1530.6 384.5Q1531.2 385.5 1532.3 386.1Q1533.3 386.8 1534.6 387.3Q1535.9 387.7 1537.2 388.0L1537.2 388.0L1541.2 389.0Q1543.5 389.6 1545.8 390.5Q1548.0 391.5 1549.7 392.9Q1551.5 394.3 1552.5 396.4Q1553.6 398.4 1553.6 401.2L1553.6 401.2Q1553.6 404.9 1551.7 407.7Q1549.8 410.5 1546.2 412.1Q1542.6 413.6 1537.6 413.6L1537.6 413.6Q1532.6 413.6 1529.0 412.1Q1525.4 410.6 1523.4 407.7Q1521.3 404.7 1521.2 400.5L1521.2 400.5L1528.7 400.5Q1528.9 402.7 1530.1 404.2Q1531.2 405.7 1533.2 406.4Q1535.1 407.1 1537.5 407.1L1537.5 407.1Q1540.0 407.1 1541.9 406.4Q1543.7 405.6 1544.8 404.3Q1545.9 402.9 1545.9 401.1L1545.9 401.1Q1545.9 399.4 1544.9 398.4Q1544.0 397.3 1542.3 396.6Q1540.6 395.8 1538.3 395.2L1538.3 395.2L1533.5 394.0Q1528.3 392.7 1525.3 389.9Q1522.3 387.2 1522.3 382.7L1522.3 382.7Q1522.3 379.0 1524.3 376.2Q1526.3 373.4 1529.8 371.8Q1533.3 370.2 1537.8 370.2L1537.8 370.2Q1542.3 370.2 1545.7 371.8Q1549.0 373.4 1551.0 376.1Q1552.9 378.9 1553.0 382.4L1553.0 382.4ZM1603.5 379.5L1592.3 413L1584.1 413L1599.0 370.8L1608.4 370.8L1623.3 413L1615.1 413L1603.9 379.5L1603.5 379.5ZM1592.6 402.6L1592.6 396.5L1614.8 396.5L1614.8 402.6L1592.6 402.6ZM1663.7 413L1656.0 413L1656.0 370.8L1683.1 370.8L1683.1 377.2L1663.7 377.2L1663.7 388.7L1681.2 388.7L1681.2 395.1L1663.7 395.1L1663.7 413ZM1744.8 413L1717.2 413L1717.2 370.8L1744.6 370.8L1744.6 377.2L1724.8 377.2L1724.8 388.7L1743.2 388.7L1743.2 395.1L1724.8 395.1L1724.8 406.6L1744.8 406.6L1744.8 413ZM1787.3 413L1779.6 413L1779.6 370.8L1795.5 370.8Q1800.3 370.8 1803.6 372.5Q1806.9 374.2 1808.6 377.2Q1810.3 380.3 1810.3 384.3L1810.3 384.3Q1810.3 388.4 1808.6 391.3Q1806.9 394.3 1803.5 395.9Q1800.2 397.6 1795.3 397.6L1795.3 397.6L1784.1 397.6L1784.1 391.2L1794.3 391.2Q1797.2 391.2 1799.0 390.4Q1800.8 389.6 1801.7 388.1Q1802.5 386.6 1802.5 384.3L1802.5 384.3Q1802.5 382.1 1801.7 380.5Q1800.8 378.9 1799.0 378.0Q1797.1 377.2 1794.3 377.2L1794.3 377.2L1787.3 377.2L1787.3 413ZM1793.1 393.9L1801.4 393.9L1811.9 413L1803.3 413L1793.1 393.9ZM1903.2 413L1886.1 413L1886.1 370.8L1902.3 370.8Q1906.9 370.8 1909.9 372.2Q1912.9 373.7 1914.5 376.2Q1916.0 378.6 1916.0 381.8L1916.0 381.8Q1916.0 384.3 1915.0 386.2Q1914.0 388.0 1912.3 389.1Q1910.7 390.2 1908.6 390.7L1908.6 390.7L1908.6 391.1Q1910.8 391.3 1912.9 392.5Q1915.0 393.8 1916.3 396.0Q1917.6 398.3 1917.6 401.5L1917.6 401.5Q1917.6 404.8 1916.0 407.4Q1914.4 410.0 1911.2 411.5Q1908.1 413 1903.2 413L1903.2 413ZM1893.8 394.3L1893.8 406.6L1902.0 406.6Q1906.2 406.6 1908.0 405.0Q1909.8 403.4 1909.8 400.9L1909.8 400.9Q1909.8 399.0 1908.9 397.5Q1908.0 396.0 1906.3 395.1Q1904.6 394.3 1902.2 394.3L1902.2 394.3L1893.8 394.3ZM1893.8 377.1L1893.8 388.8L1901.3 388.8Q1903.3 388.8 1904.9 388.0Q1906.5 387.3 1907.4 385.9Q1908.3 384.6 1908.3 382.7L1908.3 382.7Q1908.3 380.3 1906.6 378.7Q1904.9 377.1 1901.5 377.1L1901.5 377.1L1893.8 377.1ZM1978.0 397.7L1978.0 370.8L1985.7 370.8L1985.7 398.4Q1985.7 402.9 1983.6 406.3Q1981.4 409.8 1977.6 411.7Q1973.7 413.6 1968.6 413.6L1968.6 413.6Q1963.4 413.6 1959.6 411.7Q1955.7 409.8 1953.6 406.3Q1951.5 402.9 1951.5 398.4L1951.5 398.4L1951.5 370.8L1959.1 370.8L1959.1 397.7Q1959.1 400.4 1960.3 402.4Q1961.4 404.5 1963.5 405.7Q1965.7 406.8 1968.6 406.8L1968.6 406.8Q1971.5 406.8 1973.6 405.7Q1975.7 404.5 1976.9 402.4Q1978.0 400.4 1978.0 397.7L1978.0 397.7ZM2051.5 382.4L2044.1 382.4Q2043.8 379.7 2041.7 378.2Q2039.6 376.7 2036.2 376.7L2036.2 376.7Q2033.8 376.7 2032.1 377.4Q2030.4 378.2 2029.5 379.4Q2028.6 380.6 2028.5 382.2L2028.5 382.2Q2028.5 383.5 2029.1 384.5Q2029.7 385.5 2030.8 386.1Q2031.8 386.8 2033.1 387.3Q2034.4 387.7 2035.7 388.0L2035.7 388.0L2039.7 389.0Q2042.0 389.6 2044.3 390.5Q2046.5 391.5 2048.2 392.9Q2050.0 394.3 2051.0 396.4Q2052.1 398.4 2052.1 401.2L2052.1 401.2Q2052.1 404.9 2050.2 407.7Q2048.3 410.5 2044.7 412.1Q2041.1 413.6 2036.0 413.6L2036.0 413.6Q2031.1 413.6 2027.5 412.1Q2023.9 410.6 2021.9 407.7Q2019.8 404.7 2019.7 400.5L2019.7 400.5L2027.2 400.5Q2027.4 402.7 2028.6 404.2Q2029.7 405.7 2031.7 406.4Q2033.6 407.1 2036.0 407.1L2036.0 407.1Q2038.5 407.1 2040.4 406.4Q2042.2 405.6 2043.3 404.3Q2044.4 402.9 2044.4 401.1L2044.4 401.1Q2044.4 399.4 2043.4 398.4Q2042.5 397.3 2040.8 396.6Q2039.1 395.8 2036.8 395.2L2036.8 395.2L2032.0 394.0Q2026.8 392.7 2023.8 389.9Q2020.8 387.2 2020.8 382.7L2020.8 382.7Q2020.8 379.0 2022.8 376.2Q2024.8 373.4 2028.3 371.8Q2031.8 370.2 2036.3 370.2L2036.3 370.2Q2040.8 370.2 2044.2 371.8Q2047.5 373.4 2049.5 376.1Q2051.4 378.9 2051.5 382.4L2051.5 382.4ZM2086.0 370.8L2093.7 370.8L2093.7 413L2086.0 413L2086.0 370.8ZM2156.2 370.8L2163.8 370.8L2163.8 413L2157.0 413L2137.2 384.3L2136.8 384.3L2136.8 413L2129.2 413L2129.2 370.8L2136.0 370.8L2155.9 399.6L2156.2 399.6L2156.2 370.8ZM2226.9 413L2199.3 413L2199.3 370.8L2226.8 370.8L2226.8 377.2L2207.0 377.2L2207.0 388.7L2225.3 388.7L2225.3 395.1L2207.0 395.1L2207.0 406.6L2226.9 406.6L2226.9 413ZM2292.0 382.4L2284.7 382.4Q2284.4 379.7 2282.3 378.2Q2280.1 376.7 2276.7 376.7L2276.7 376.7Q2274.3 376.7 2272.6 377.4Q2270.9 378.2 2270.0 379.4Q2269.1 380.6 2269.1 382.2L2269.1 382.2Q2269.1 383.5 2269.7 384.5Q2270.3 385.5 2271.4 386.1Q2272.4 386.8 2273.7 387.3Q2275.0 387.7 2276.3 388.0L2276.3 388.0L2280.2 389.0Q2282.6 389.6 2284.8 390.5Q2287.0 391.5 2288.8 392.9Q2290.6 394.3 2291.6 396.4Q2292.6 398.4 2292.6 401.2L2292.6 401.2Q2292.6 404.9 2290.7 407.7Q2288.8 410.5 2285.2 412.1Q2281.7 413.6 2276.6 413.6L2276.6 413.6Q2271.7 413.6 2268.1 412.1Q2264.5 410.6 2262.4 407.7Q2260.4 404.7 2260.2 400.5L2260.2 400.5L2267.8 400.5Q2267.9 402.7 2269.1 404.2Q2270.3 405.7 2272.2 406.4Q2274.2 407.1 2276.5 407.1L2276.5 407.1Q2279.0 407.1 2280.9 406.4Q2282.8 405.6 2283.9 404.3Q2284.9 402.9 2285.0 401.1L2285.0 401.1Q2284.9 399.4 2284.0 398.4Q2283.1 397.3 2281.4 396.6Q2279.7 395.8 2277.4 395.2L2277.4 395.2L2272.6 394.0Q2267.4 392.7 2264.4 389.9Q2261.3 387.2 2261.3 382.7L2261.3 382.7Q2261.3 379.0 2263.4 376.2Q2265.4 373.4 2268.9 371.8Q2272.4 370.2 2276.8 370.2L2276.8 370.2Q2281.3 370.2 2284.7 371.8Q2288.1 373.4 2290.0 376.1Q2292.0 378.9 2292.0 382.4L2292.0 382.4ZM2356.9 382.4L2349.5 382.4Q2349.2 379.7 2347.1 378.2Q2345.0 376.7 2341.6 376.7L2341.6 376.7Q2339.2 376.7 2337.5 377.4Q2335.8 378.2 2334.9 379.4Q2334.0 380.6 2333.9 382.2L2333.9 382.2Q2333.9 383.5 2334.5 384.5Q2335.1 385.5 2336.2 386.1Q2337.2 386.8 2338.5 387.3Q2339.8 387.7 2341.1 388.0L2341.1 388.0L2345.1 389.0Q2347.4 389.6 2349.7 390.5Q2351.9 391.5 2353.6 392.9Q2355.4 394.3 2356.4 396.4Q2357.5 398.4 2357.5 401.2L2357.5 401.2Q2357.5 404.9 2355.6 407.7Q2353.7 410.5 2350.1 412.1Q2346.5 413.6 2341.4 413.6L2341.4 413.6Q2336.5 413.6 2332.9 412.1Q2329.3 410.6 2327.3 407.7Q2325.2 404.7 2325.1 400.5L2325.1 400.5L2332.6 400.5Q2332.8 402.7 2334.0 404.2Q2335.1 405.7 2337.1 406.4Q2339.0 407.1 2341.4 407.1L2341.4 407.1Q2343.9 407.1 2345.8 406.4Q2347.6 405.6 2348.7 404.3Q2349.8 402.9 2349.8 401.1L2349.8 401.1Q2349.8 399.4 2348.8 398.4Q2347.9 397.3 2346.2 396.6Q2344.5 395.8 2342.2 395.2L2342.2 395.2L2337.4 394.0Q2332.2 392.7 2329.2 389.9Q2326.2 387.2 2326.2 382.7L2326.2 382.7Q2326.2 379.0 2328.2 376.2Q2330.2 373.4 2333.7 371.8Q2337.2 370.2 2341.7 370.2L2341.7 370.2Q2346.2 370.2 2349.6 371.8Q2352.9 373.4 2354.9 376.1Q2356.8 378.9 2356.9 382.4L2356.9 382.4Z" fill="#1A2E1A"></path><path d="M1441.3 413.5L1441.3 413.5Q1439.5 413.5 1438.1 412.1Q1436.8 410.8 1436.8 408.9L1436.8 408.9Q1436.8 407.1 1438.1 405.8Q1439.5 404.4 1441.3 404.4L1441.3 404.4Q1443.2 404.4 1444.5 405.8Q1445.8 407.1 1445.9 408.9L1445.9 408.9Q1445.8 410.2 1445.2 411.2Q1444.6 412.2 1443.6 412.8Q1442.6 413.5 1441.3 413.5ZM2395.7 413.5L2395.7 413.5Q2393.8 413.5 2392.5 412.1Q2391.2 410.8 2391.2 408.9L2391.2 408.9Q2391.2 407.1 2392.5 405.8Q2393.8 404.4 2395.7 404.4L2395.7 404.4Q2397.5 404.4 2398.9 405.8Q2400.2 407.1 2400.2 408.9L2400.2 408.9Q2400.2 410.2 2399.6 411.2Q2399.0 412.2 2397.9 412.8Q2396.9 413.5 2395.7 413.5Z" fill="#4A9E6E"></path></svg>