<svg xmlns="http://www.w3.org/2000/svg" viewBox="0 0 512 512" role="img" aria-label="CallGuard AI — Smarter calls. Safer business."><g stroke-linejoin="round"><path d="M256 25 C310 45 376 60 430 68 Q451 72 451 92 L451 235 C451 345 372 432 256 491 C140 432 61 345 61 235 L61 92 Q61 72 82 68 C136 60 202 45 256 25 Z" fill="none" stroke="#4A9E6E" stroke-width="30"></path><path d="M256 64 C306 83 362 94 408 101 Q413 103 413 122 L413 237 C413 330 348 404 256 449 C164 404 99 330 99 237 L99 122 Q99 103 104 101 C150 94 206 83 256 64 Z" fill="#FFFFFF" stroke="#1A2E1A" stroke-width="22"></path><rect x="152" y="235" width="24" height="42" rx="12" fill="#4A9E6E"></rect><rect x="198" y="202" width="24" height="108" rx="12" fill="#4A9E6E"></rect><rect x="244" y="156" width="24" height="200" rx="12" fill="#4A9E6E"></rect><rect x="290" y="202" width="24" height="108" rx="12" fill="#4A9E6E"></rect><rect x="336" y="235" width="24" height="42" rx="12" fill="#4A9E6E"></rect></g></svg>