<svg xmlns="http://www.w3.org/2000/svg" viewBox="0 0 1222 876" role="img" aria-label="CallGuard AI — Smarter calls. Safer business."><g stroke-linejoin="round" transform="translate(355 0)"><path d="M256 25 C310 45 376 60 430 68 Q451 72 451 92 L451 235 C451 345 372 432 256 491 C140 432 61 345 61 235 L61 92 Q61 72 82 68 C136 60 202 45 256 25 Z" fill="none" stroke="#4A9E6E" stroke-width="30"></path><path d="M256 64 C306 83 362 94 408 101 Q413 103 413 122 L413 237 C413 330 348 404 256 449 C164 404 99 330 99 237 L99 122 Q99 103 104 101 C150 94 206 83 256 64 Z" fill="#FFFFFF" stroke="#1A2E1A" stroke-width="22"></path><rect x="152" y="235" width="24" height="42" rx="12" fill="#4A9E6E"></rect><rect x="198" y="202" width="24" height="108" rx="12" fill="#4A9E6E"></rect><rect x="244" y="156" width="24" height="200" rx="12" fill="#4A9E6E"></rect><rect x="290" y="202" width="24" height="108" rx="12" fill="#4A9E6E"></rect><rect x="336" y="235" width="24" height="42" rx="12" fill="#4A9E6E"></rect></g><path d="M76.5 636.7Q76.5 619.3 84.6 605.6Q92.7 591.8 106.5 584.1Q120.4 576.3 136.9 576.3L136.9 576.3Q155.7 576.3 170.4 585.6Q185.2 594.9 191.8 611.9L191.8 611.9L168.5 611.9Q163.9 602.5 155.7 597.9Q147.6 593.3 136.9 593.3L136.9 593.3Q125.1 593.3 116.0 598.6Q106.8 603.9 101.6 613.7Q96.4 623.6 96.4 636.7L96.4 636.7Q96.4 649.8 101.6 659.6Q106.8 669.5 116.0 674.8Q125.1 680.2 136.9 680.2L136.9 680.2Q147.6 680.2 155.7 675.6Q163.9 671.0 168.5 661.7L168.5 661.7L191.8 661.7Q185.2 678.7 170.4 687.8Q155.7 697.0 136.9 697.0L136.9 697.0Q120.2 697.0 106.4 689.3Q92.7 681.5 84.6 667.8Q76.5 654.0 76.5 636.7L76.5 636.7ZM207.9 648.7Q207.9 634.6 213.8 623.8Q219.7 612.9 229.8 606.8Q239.9 600.8 252.1 600.8L252.1 600.8Q263.2 600.8 271.4 605.1Q279.7 609.5 284.6 615.9L284.6 615.9L284.6 602.3L304.2 602.3L304.2 696L284.6 696L284.6 682.1Q279.7 688.7 271.2 693.1Q262.7 697.5 251.8 697.5L251.8 697.5Q239.7 697.5 229.7 691.3Q219.7 685.1 213.8 674.0Q207.9 662.9 207.9 648.7L207.9 648.7ZM284.6 649.1Q284.6 639.4 280.6 632.3Q276.6 625.1 270.2 621.4Q263.7 617.6 256.2 617.6L256.2 617.6Q248.7 617.6 242.3 621.3Q235.8 624.9 231.8 632.0Q227.8 639.0 227.8 648.7L227.8 648.7Q227.8 658.4 231.8 665.7Q235.8 673.0 242.4 676.9Q248.9 680.7 256.2 680.7L256.2 680.7Q263.7 680.7 270.2 677.0Q276.6 673.2 280.6 666.0Q284.6 658.8 284.6 649.1L284.6 649.1ZM329.7 570.2L349.0 570.2L349.0 696L329.7 696L329.7 570.2ZM374.5 570.2L393.9 570.2L393.9 696L374.5 696L374.5 570.2ZM528.2 611.9L504.9 611.9Q500.3 603.0 492.2 598.5Q484.0 594 473.3 594L473.3 594Q461.6 594 452.4 599.3Q443.2 604.5 438.0 614.2Q432.8 623.9 432.8 636.7L432.8 636.7Q432.8 649.4 438.0 659.2Q443.2 669.0 452.4 674.2Q461.6 679.5 473.3 679.5L473.3 679.5Q489.1 679.5 499.0 670.7Q508.8 661.8 511.0 646.7L511.0 646.7L466.7 646.7L466.7 631.2L531.8 631.2L531.8 646.4Q529.9 660.1 522.0 671.7Q514.1 683.3 501.4 690.1Q488.8 697.0 473.3 697.0L473.3 697.0Q456.6 697.0 442.9 689.3Q429.1 681.5 421.0 667.8Q413.0 654.0 413.0 636.7L413.0 636.7Q413.0 619.3 421.0 605.6Q429.1 591.8 443.0 584.1Q456.8 576.3 473.3 576.3L473.3 576.3Q492.2 576.3 506.9 585.6Q521.6 594.9 528.2 611.9L528.2 611.9ZM616.3 602.3L635.7 602.3L635.7 696L616.3 696L616.3 685.0Q611.7 690.7 604.3 694.0Q596.9 697.4 588.6 697.4L588.6 697.4Q577.5 697.4 568.8 692.8Q560.0 688.2 555.0 679.2Q550.0 670.2 550.0 657.4L550.0 657.4L550.0 602.3L569.2 602.3L569.2 654.5Q569.2 667.1 575.5 673.8Q581.8 680.5 592.6 680.5L592.6 680.5Q603.5 680.5 609.9 673.8Q616.3 667.1 616.3 654.5L616.3 654.5L616.3 602.3ZM654.7 648.7Q654.7 634.6 660.6 623.8Q666.4 612.9 676.5 606.8Q686.7 600.8 698.9 600.8L698.9 600.8Q709.9 600.8 718.2 605.1Q726.4 609.5 731.4 615.9L731.4 615.9L731.4 602.3L750.9 602.3L750.9 696L731.4 696L731.4 682.1Q726.4 688.7 717.9 693.1Q709.4 697.5 698.6 697.5L698.6 697.5Q686.5 697.5 676.5 691.3Q666.4 685.1 660.6 674.0Q654.7 662.9 654.7 648.7L654.7 648.7ZM731.4 649.1Q731.4 639.4 727.4 632.3Q723.4 625.1 716.9 621.4Q710.5 617.6 703.0 617.6L703.0 617.6Q695.5 617.6 689.0 621.3Q682.6 624.9 678.6 632.0Q674.6 639.0 674.6 648.7L674.6 648.7Q674.6 658.4 678.6 665.7Q682.6 673.0 689.1 676.9Q695.7 680.7 703.0 680.7L703.0 680.7Q710.5 680.7 716.9 677.0Q723.4 673.2 727.4 666.0Q731.4 658.8 731.4 649.1L731.4 649.1ZM795.8 615.9Q800.0 608.8 807.1 604.8Q814.2 600.8 823.8 600.8L823.8 600.8L823.8 620.9L818.9 620.9Q807.5 620.9 801.7 626.6Q795.8 632.4 795.8 646.7L795.8 646.7L795.8 696L776.4 696L776.4 602.3L795.8 602.3L795.8 615.9ZM835.2 648.7Q835.2 634.6 841.1 623.8Q847.0 612.9 857.1 606.8Q867.2 600.8 879.6 600.8L879.6 600.8Q888.8 600.8 897.7 604.8Q906.6 608.8 911.9 615.4L911.9 615.4L911.9 570.2L931.5 570.2L931.5 696L911.9 696L911.9 681.9Q907.1 688.7 898.7 693.1Q890.3 697.5 879.4 697.5L879.4 697.5Q867.2 697.5 857.1 691.3Q847.0 685.1 841.1 674.0Q835.2 662.9 835.2 648.7L835.2 648.7ZM911.9 649.1Q911.9 639.4 907.9 632.3Q903.9 625.1 897.5 621.4Q891.0 617.6 883.5 617.6L883.5 617.6Q876.0 617.6 869.6 621.3Q863.1 624.9 859.1 632.0Q855.1 639.0 855.1 648.7L855.1 648.7Q855.1 658.4 859.1 665.7Q863.1 673.0 869.7 676.9Q876.2 680.7 883.5 680.7L883.5 680.7Q891.0 680.7 897.5 677.0Q903.9 673.2 907.9 666.0Q911.9 658.8 911.9 649.1L911.9 649.1Z" fill="#1A2E1A"></path><path d="M1080.9 696L1072.4 671.9L1022.9 671.9L1014.4 696L994.2 696L1036.5 577.7L1059.0 577.7L1101.3 696L1080.9 696ZM1028.4 656.0L1066.9 656.0L1047.7 601.1L1028.4 656.0ZM1119.6 577.9L1139.0 577.9L1139.0 696L1119.6 696L1119.6 577.9Z" fill="#4A9E6E"></path><path d="M356.8 757.9L351.5 757.9Q351.3 755.9 349.7 754.8Q348.2 753.7 345.7 753.7L345.7 753.7Q344.0 753.7 342.7 754.2Q341.5 754.8 340.9 755.7Q340.2 756.6 340.2 757.7L340.2 757.7Q340.2 758.7 340.6 759.4Q341.1 760.1 341.8 760.5Q342.6 761.0 343.5 761.4Q344.4 761.7 345.4 761.9L345.4 761.9L348.2 762.6Q350.0 763.0 351.6 763.7Q353.2 764.4 354.4 765.4Q355.7 766.5 356.5 768.0Q357.2 769.4 357.2 771.4L357.2 771.4Q357.2 774.1 355.8 776.1Q354.5 778.2 351.9 779.3Q349.3 780.5 345.6 780.5L345.6 780.5Q342.1 780.5 339.4 779.4Q336.8 778.3 335.4 776.1Q333.9 774.0 333.8 771.0L333.8 771.0L339.2 771.0Q339.3 772.6 340.2 773.6Q341.1 774.7 342.5 775.2Q343.9 775.7 345.6 775.7L345.6 775.7Q347.4 775.7 348.8 775.2Q350.1 774.6 350.9 773.7Q351.7 772.7 351.7 771.4L351.7 771.4Q351.7 770.2 351.0 769.4Q350.3 768.6 349.1 768.1Q347.8 767.6 346.2 767.1L346.2 767.1L342.7 766.2Q338.9 765.3 336.8 763.3Q334.6 761.3 334.6 758.0L334.6 758.0Q334.6 755.3 336.0 753.3Q337.5 751.3 340.0 750.2Q342.6 749.0 345.8 749.0L345.8 749.0Q349.0 749.0 351.5 750.2Q353.9 751.3 355.4 753.3Q356.8 755.3 356.8 757.9L356.8 757.9ZM376.1 780L376.1 749.5L382.9 749.5L392.0 771.6L392.3 771.6L401.4 749.5L408.2 749.5L408.2 780L402.9 780L402.9 759.0L402.6 759.0L394.1 779.9L390.2 779.9L381.7 759.0L381.4 759.0L381.4 780L376.1 780ZM440.3 755.7L432.1 780L426.2 780L437.0 749.5L443.8 749.5L454.6 780L448.7 780L440.5 755.7L440.3 755.7ZM432.3 772.5L432.3 768.0L448.4 768.0L448.4 772.5L432.3 772.5ZM478.1 780L472.6 780L472.6 749.5L484.1 749.5Q487.6 749.5 490.0 750.7Q492.4 751.9 493.6 754.1Q494.8 756.3 494.8 759.2L494.8 759.2Q494.8 762.2 493.6 764.3Q492.3 766.5 489.9 767.6Q487.5 768.8 484.0 768.8L484.0 768.8L475.8 768.8L475.8 764.2L483.2 764.2Q485.3 764.2 486.6 763.6Q487.9 763.1 488.5 762.0Q489.2 760.8 489.2 759.2L489.2 759.2Q489.2 757.6 488.5 756.4Q487.9 755.3 486.6 754.7Q485.3 754.1 483.2 754.1L483.2 754.1L478.1 754.1L478.1 780ZM482.3 766.2L488.4 766.2L495.9 780L489.8 780L482.3 766.2ZM522.0 754.1L512.6 754.1L512.6 749.5L536.9 749.5L536.9 754.1L527.5 754.1L527.5 780L522.0 780L522.0 754.1ZM575.6 780L555.6 780L555.6 749.5L575.5 749.5L575.5 754.1L561.2 754.1L561.2 762.4L574.5 762.4L574.5 767.0L561.2 767.0L561.2 775.4L575.6 775.4L575.6 780ZM600.7 780L595.2 780L595.2 749.5L606.6 749.5Q610.1 749.5 612.5 750.7Q614.9 751.9 616.1 754.1Q617.4 756.3 617.4 759.2L617.4 759.2Q617.4 762.2 616.1 764.3Q614.9 766.5 612.5 767.6Q610.1 768.8 606.5 768.8L606.5 768.8L598.4 768.8L598.4 764.2L605.8 764.2Q607.8 764.2 609.2 763.6Q610.5 763.1 611.1 762.0Q611.7 760.8 611.7 759.2L611.7 759.2Q611.7 757.6 611.1 756.4Q610.5 755.3 609.1 754.7Q607.8 754.1 605.8 754.1L605.8 754.1L600.7 754.1L600.7 780ZM604.9 766.2L610.9 766.2L618.5 780L612.3 780L604.9 766.2ZM687.0 759.8L687.0 759.8L681.5 759.8Q681.2 758.4 680.6 757.3Q679.9 756.3 679.0 755.5Q678.0 754.8 676.8 754.4Q675.6 754.0 674.2 754.0L674.2 754.0Q671.7 754.0 669.8 755.2Q667.9 756.5 666.8 758.9Q665.7 761.3 665.7 764.7L665.7 764.7Q665.7 768.2 666.8 770.6Q667.9 773.0 669.8 774.2Q671.7 775.5 674.2 775.5L674.2 775.5Q675.6 775.5 676.8 775.1Q678.0 774.7 678.9 774.0Q679.9 773.3 680.6 772.2Q681.2 771.2 681.5 769.9L681.5 769.9L687.0 769.9Q686.7 772.1 685.7 774.0Q684.7 775.9 683.0 777.3Q681.3 778.8 679.1 779.6Q676.8 780.4 674.1 780.4L674.1 780.4Q670.1 780.4 666.9 778.6Q663.8 776.7 661.9 773.2Q660.1 769.6 660.1 764.7L660.1 764.7Q660.1 759.8 662.0 756.3Q663.8 752.8 667.0 750.9Q670.1 749.0 674.1 749.0L674.1 749.0Q676.7 749.0 678.9 749.8Q681.0 750.5 682.8 751.8Q684.5 753.2 685.6 755.2Q686.7 757.2 687.0 759.8ZM717.8 755.7L709.7 780L703.8 780L714.5 749.5L721.3 749.5L732.1 780L726.2 780L718.0 755.7L717.8 755.7ZM709.9 772.5L709.9 768.0L726.0 768.0L726.0 772.5L709.9 772.5ZM769.1 780L750.1 780L750.1 749.5L755.7 749.5L755.7 775.4L769.1 775.4L769.1 780ZM806.9 780L787.9 780L787.9 749.5L793.4 749.5L793.4 775.4L806.9 775.4L806.9 780ZM847.6 757.9L842.3 757.9Q842.1 755.9 840.5 754.8Q839.0 753.7 836.5 753.7L836.5 753.7Q834.8 753.7 833.6 754.2Q832.3 754.8 831.7 755.7Q831.0 756.6 831.0 757.7L831.0 757.7Q831.0 758.7 831.4 759.4Q831.9 760.1 832.6 760.5Q833.4 761.0 834.3 761.4Q835.2 761.7 836.2 761.9L836.2 761.9L839.1 762.6Q840.8 763.0 842.4 763.7Q844.0 764.4 845.3 765.4Q846.5 766.5 847.3 768.0Q848.0 769.4 848.0 771.4L848.0 771.4Q848.0 774.1 846.7 776.1Q845.3 778.2 842.7 779.3Q840.1 780.5 836.4 780.5L836.4 780.5Q832.9 780.5 830.3 779.4Q827.6 778.3 826.2 776.1Q824.7 774.0 824.6 771.0L824.6 771.0L830.0 771.0Q830.1 772.6 831.0 773.6Q831.9 774.7 833.3 775.2Q834.7 775.7 836.4 775.7L836.4 775.7Q838.2 775.7 839.6 775.2Q840.9 774.6 841.7 773.7Q842.5 772.7 842.5 771.4L842.5 771.4Q842.5 770.2 841.8 769.4Q841.1 768.6 839.9 768.1Q838.6 767.6 837.0 767.1L837.0 767.1L833.5 766.2Q829.8 765.3 827.6 763.3Q825.4 761.3 825.4 758.0L825.4 758.0Q825.4 755.3 826.9 753.3Q828.3 751.3 830.9 750.2Q833.4 749.0 836.6 749.0L836.6 749.0Q839.9 749.0 842.3 750.2Q844.8 751.3 846.2 753.3Q847.6 755.3 847.6 757.9L847.6 757.9Z" fill="#1A2E1A"></path><path d="M870.0 780.3L870.0 780.3Q868.7 780.3 867.7 779.4Q866.7 778.4 866.8 777.0L866.8 777.0Q866.7 775.7 867.7 774.8Q868.7 773.8 870.0 773.8L870.0 773.8Q871.4 773.8 872.3 774.8Q873.3 775.7 873.3 777.0L873.3 777.0Q873.3 778.0 872.9 778.7Q872.4 779.4 871.7 779.9Q870.9 780.3 870.0 780.3Z" fill="#4A9E6E"></path><path d="M348.1 809.9L342.8 809.9Q342.6 807.9 341.0 806.8Q339.5 805.7 337.0 805.7L337.0 805.7Q335.3 805.7 334.1 806.2Q332.8 806.8 332.2 807.7Q331.5 808.6 331.5 809.7L331.5 809.7Q331.5 810.7 331.9 811.4Q332.4 812.1 333.1 812.5Q333.9 813.0 334.8 813.4Q335.8 813.7 336.7 813.9L336.7 813.9L339.6 814.6Q341.3 815.0 342.9 815.7Q344.5 816.4 345.8 817.4Q347.0 818.5 347.8 820.0Q348.5 821.4 348.5 823.4L348.5 823.4Q348.5 826.1 347.2 828.1Q345.8 830.2 343.2 831.3Q340.6 832.5 336.9 832.5L336.9 832.5Q333.4 832.5 330.8 831.4Q328.1 830.3 326.7 828.1Q325.2 826.0 325.1 823.0L325.1 823.0L330.5 823.0Q330.7 824.6 331.5 825.6Q332.4 826.7 333.8 827.2Q335.2 827.7 336.9 827.7L336.9 827.7Q338.7 827.7 340.1 827.2Q341.4 826.6 342.2 825.7Q343.0 824.7 343.0 823.4L343.0 823.4Q343.0 822.2 342.3 821.4Q341.6 820.6 340.4 820.1Q339.2 819.6 337.5 819.1L337.5 819.1L334.0 818.2Q330.3 817.3 328.1 815.3Q325.9 813.3 325.9 810.0L325.9 810.0Q325.9 807.3 327.4 805.3Q328.8 803.3 331.4 802.2Q333.9 801.0 337.1 801.0L337.1 801.0Q340.4 801.0 342.8 802.2Q345.3 803.3 346.7 805.3Q348.1 807.3 348.1 809.9L348.1 809.9ZM379.0 807.7L370.9 832L365.0 832L375.8 801.5L382.6 801.5L393.4 832L387.4 832L379.3 807.7L379.0 807.7ZM371.1 824.5L371.1 820.0L387.2 820.0L387.2 824.5L371.1 824.5ZM416.9 832L411.4 832L411.4 801.5L430.9 801.5L430.9 806.1L416.9 806.1L416.9 814.4L429.6 814.4L429.6 819.0L416.9 819.0L416.9 832ZM470.0 832L450.0 832L450.0 801.5L469.8 801.5L469.8 806.1L455.5 806.1L455.5 814.4L468.8 814.4L468.8 819.0L455.5 819.0L455.5 827.4L470.0 827.4L470.0 832ZM495.0 832L489.5 832L489.5 801.5L500.9 801.5Q504.5 801.5 506.9 802.7Q509.3 803.9 510.5 806.1Q511.7 808.3 511.7 811.2L511.7 811.2Q511.7 814.2 510.5 816.3Q509.2 818.5 506.8 819.6Q504.4 820.8 500.9 820.8L500.9 820.8L492.7 820.8L492.7 816.2L500.1 816.2Q502.2 816.2 503.5 815.6Q504.8 815.1 505.4 814.0Q506.1 812.8 506.1 811.2L506.1 811.2Q506.1 809.6 505.4 808.4Q504.8 807.3 503.5 806.7Q502.2 806.1 500.1 806.1L500.1 806.1L495.0 806.1L495.0 832ZM499.2 818.2L505.3 818.2L512.8 832L506.7 832L499.2 818.2ZM567.6 832L555.2 832L555.2 801.5L566.9 801.5Q570.2 801.5 572.4 802.5Q574.6 803.5 575.7 805.3Q576.8 807.1 576.8 809.4L576.8 809.4Q576.8 811.2 576.1 812.6Q575.4 813.9 574.2 814.7Q573.0 815.5 571.5 815.9L571.5 815.9L571.5 816.2Q573.1 816.3 574.6 817.2Q576.1 818.1 577.1 819.7Q578.0 821.4 578.0 823.7L578.0 823.7Q578.0 826.0 576.9 827.9Q575.7 829.8 573.4 830.9Q571.1 832 567.6 832L567.6 832ZM560.8 818.4L560.8 827.4L566.7 827.4Q569.7 827.4 571.1 826.2Q572.4 825.1 572.4 823.2L572.4 823.2Q572.4 821.9 571.7 820.8Q571.1 819.7 569.8 819.1Q568.6 818.4 566.9 818.4L566.9 818.4L560.8 818.4ZM560.8 806.0L560.8 814.4L566.2 814.4Q567.7 814.4 568.8 813.9Q570.0 813.4 570.6 812.4Q571.3 811.4 571.3 810.1L571.3 810.1Q571.3 808.3 570.1 807.2Q568.8 806.0 566.4 806.0L566.4 806.0L560.8 806.0ZM616.1 820.9L616.1 801.5L621.6 801.5L621.6 821.4Q621.6 824.7 620.1 827.2Q618.5 829.7 615.8 831.1Q613.0 832.5 609.2 832.5L609.2 832.5Q605.5 832.5 602.7 831.1Q599.9 829.7 598.4 827.2Q596.8 824.7 596.8 821.4L596.8 821.4L596.8 801.5L602.4 801.5L602.4 820.9Q602.4 822.9 603.2 824.3Q604.1 825.8 605.6 826.7Q607.1 827.5 609.2 827.5L609.2 827.5Q611.3 827.5 612.9 826.7Q614.4 825.8 615.3 824.3Q616.1 822.9 616.1 820.9L616.1 820.9ZM663.6 809.9L658.3 809.9Q658.1 807.9 656.5 806.8Q655.0 805.7 652.5 805.7L652.5 805.7Q650.8 805.7 649.5 806.2Q648.3 806.8 647.6 807.7Q647.0 808.6 647.0 809.7L647.0 809.7Q647.0 810.7 647.4 811.4Q647.9 812.1 648.6 812.5Q649.4 813.0 650.3 813.4Q651.2 813.7 652.2 813.9L652.2 813.9L655.0 814.6Q656.8 815.0 658.4 815.7Q660.0 816.4 661.2 817.4Q662.5 818.5 663.3 820.0Q664.0 821.4 664.0 823.4L664.0 823.4Q664.0 826.1 662.6 828.1Q661.3 830.2 658.7 831.3Q656.1 832.5 652.4 832.5L652.4 832.5Q648.9 832.5 646.2 831.4Q643.6 830.3 642.1 828.1Q640.7 826.0 640.6 823.0L640.6 823.0L646.0 823.0Q646.1 824.6 647.0 825.6Q647.9 826.7 649.2 827.2Q650.6 827.7 652.4 827.7L652.4 827.7Q654.2 827.7 655.5 827.2Q656.9 826.6 657.7 825.7Q658.5 824.7 658.5 823.4L658.5 823.4Q658.5 822.2 657.8 821.4Q657.1 820.6 655.9 820.1Q654.6 819.6 653.0 819.1L653.0 819.1L649.5 818.2Q645.7 817.3 643.5 815.3Q641.4 813.3 641.4 810.0L641.4 810.0Q641.4 807.3 642.8 805.3Q644.3 803.3 646.8 802.2Q649.4 801.0 652.6 801.0L652.6 801.0Q655.8 801.0 658.3 802.2Q660.7 803.3 662.1 805.3Q663.5 807.3 663.6 809.9L663.6 809.9ZM682.9 801.5L688.5 801.5L688.5 832L682.9 832L682.9 801.5ZM728.1 801.5L733.6 801.5L733.6 832L728.7 832L714.3 811.2L714.0 811.2L714.0 832L708.5 832L708.5 801.5L713.4 801.5L727.8 822.3L728.1 822.3L728.1 801.5ZM773.6 832L753.6 832L753.6 801.5L773.4 801.5L773.4 806.1L759.1 806.1L759.1 814.4L772.4 814.4L772.4 819.0L759.1 819.0L759.1 827.4L773.6 827.4L773.6 832ZM815.0 809.9L809.7 809.9Q809.5 807.9 807.9 806.8Q806.4 805.7 803.9 805.7L803.9 805.7Q802.2 805.7 801.0 806.2Q799.7 806.8 799.1 807.7Q798.4 808.6 798.4 809.7L798.4 809.7Q798.4 810.7 798.9 811.4Q799.3 812.1 800.1 812.5Q800.8 813.0 801.7 813.4Q802.7 813.7 803.6 813.9L803.6 813.9L806.5 814.6Q808.2 815.0 809.8 815.7Q811.4 816.4 812.7 817.4Q814.0 818.5 814.7 820.0Q815.4 821.4 815.4 823.4L815.4 823.4Q815.4 826.1 814.1 828.1Q812.7 830.2 810.1 831.3Q807.5 832.5 803.9 832.5L803.9 832.5Q800.3 832.5 797.7 831.4Q795.1 830.3 793.6 828.1Q792.1 826.0 792.0 823.0L792.0 823.0L797.4 823.0Q797.6 824.6 798.4 825.6Q799.3 826.7 800.7 827.2Q802.1 827.7 803.8 827.7L803.8 827.7Q805.6 827.7 807.0 827.2Q808.3 826.6 809.1 825.7Q809.9 824.7 809.9 823.4L809.9 823.4Q809.9 822.2 809.2 821.4Q808.5 820.6 807.3 820.1Q806.1 819.6 804.4 819.1L804.4 819.1L800.9 818.2Q797.2 817.3 795.0 815.3Q792.8 813.3 792.8 810.0L792.8 810.0Q792.8 807.3 794.3 805.3Q795.7 803.3 798.3 802.2Q800.8 801.0 804.0 801.0L804.0 801.0Q807.3 801.0 809.7 802.2Q812.2 803.3 813.6 805.3Q815.0 807.3 815.0 809.9L815.0 809.9ZM856.3 809.9L851.0 809.9Q850.8 807.9 849.2 806.8Q847.7 805.7 845.2 805.7L845.2 805.7Q843.5 805.7 842.2 806.2Q841.0 806.8 840.3 807.7Q839.7 808.6 839.7 809.7L839.7 809.7Q839.7 810.7 840.1 811.4Q840.6 812.1 841.3 812.5Q842.1 813.0 843.0 813.4Q843.9 813.7 844.9 813.9L844.9 813.9L847.7 814.6Q849.5 815.0 851.1 815.7Q852.7 816.4 853.9 817.4Q855.2 818.5 856.0 820.0Q856.7 821.4 856.7 823.4L856.7 823.4Q856.7 826.1 855.3 828.1Q854.0 830.2 851.4 831.3Q848.8 832.5 845.1 832.5L845.1 832.5Q841.6 832.5 838.9 831.4Q836.3 830.3 834.9 828.1Q833.4 826.0 833.3 823.0L833.3 823.0L838.7 823.0Q838.8 824.6 839.7 825.6Q840.6 826.7 842.0 827.2Q843.3 827.7 845.1 827.7L845.1 827.7Q846.9 827.7 848.2 827.2Q849.6 826.6 850.4 825.7Q851.2 824.7 851.2 823.4L851.2 823.4Q851.2 822.2 850.5 821.4Q849.8 820.6 848.6 820.1Q847.3 819.6 845.7 819.1L845.7 819.1L842.2 818.2Q838.4 817.3 836.3 815.3Q834.1 813.3 834.1 810.0L834.1 810.0Q834.1 807.3 835.5 805.3Q837.0 803.3 839.5 802.2Q842.1 801.0 845.3 801.0L845.3 801.0Q848.5 801.0 851.0 802.2Q853.4 803.3 854.8 805.3Q856.2 807.3 856.3 809.9L856.3 809.9Z" fill="#1A2E1A"></path><path d="M878.7 832.3L878.7 832.3Q877.4 832.3 876.4 831.4Q875.4 830.4 875.4 829.0L875.4 829.0Q875.4 827.7 876.4 826.8Q877.4 825.8 878.7 825.8L878.7 825.8Q880.0 825.8 881.0 826.8Q882.0 827.7 882.0 829.0L882.0 829.0Q882.0 830.0 881.5 830.7Q881.1 831.4 880.3 831.9Q879.6 832.3 878.7 832.3Z" fill="#4A9E6E"></path></svg>