<svg xmlns="http://www.w3.org/2000/svg" viewBox="0 0 512 512" role="img" aria-label="CallGuard AI">
  <mask id="cut" maskUnits="userSpaceOnUse" x="0" y="0" width="512" height="512">
    <path d="M134 64 H378 A28 28 0 0 1 406 92 V236 C406 348 342 416 256 452 C170 416 106 348 106 236 V92 A28 28 0 0 1 134 64 Z" fill="#fff"/>
    <path d="M128 236 L206 236 L232 236 L252 150 L274 312 L298 236 L384 236" fill="none" stroke="#000" stroke-width="24" stroke-linecap="round" stroke-linejoin="round"/>
  </mask>
  <path d="M134 64 H378 A28 28 0 0 1 406 92 V236 C406 348 342 416 256 452 C170 416 106 348 106 236 V92 A28 28 0 0 1 134 64 Z" fill="#1a2b22" mask="url(#cut)"/>
</svg>
