<svg xmlns="http://www.w3.org/2000/svg" viewBox="0 0 512 512" role="img" aria-label="CallGuard AI"><g stroke-linejoin="round"><path d="M256 54 L388 74 Q412 78 412 102 L412 260 C412 360 348 428 256 470 C164 428 100 360 100 260 L100 102 Q100 78 124 74 Z" fill="none" stroke="#4A9E6E" stroke-width="62"></path><path d="M256 54 L388 74 Q412 78 412 102 L412 260 C412 360 348 428 256 470 C164 428 100 360 100 260 L100 102 Q100 78 124 74 Z" fill="#FFFFFF" stroke="#1A2E1A" stroke-width="38"></path><rect x="145" y="228" width="30" height="44" rx="15" fill="#3D8A5E"></rect><rect x="193" y="190" width="30" height="120" rx="15" fill="#3D8A5E"></rect><rect x="241" y="150" width="30" height="200" rx="15" fill="#3D8A5E"></rect><rect x="289" y="190" width="30" height="120" rx="15" fill="#3D8A5E"></rect><rect x="337" y="228" width="30" height="44" rx="15" fill="#3D8A5E"></rect></g></svg>