<svg xmlns="http://www.w3.org/2000/svg" viewBox="28 0 2150 512" role="img" aria-label="CallGuard AI"><g stroke-linejoin="round"><path d="M256 54 L388 74 Q412 78 412 102 L412 260 C412 360 348 428 256 470 C164 428 100 360 100 260 L100 102 Q100 78 124 74 Z" fill="none" stroke="#4A9E6E" stroke-width="62"></path><path d="M256 54 L388 74 Q412 78 412 102 L412 260 C412 360 348 428 256 470 C164 428 100 360 100 260 L100 102 Q100 78 124 74 Z" fill="#FFFFFF" stroke="#1A2E1A" stroke-width="38"></path><rect x="145" y="228" width="30" height="44" rx="15" fill="#3D8A5E"></rect><rect x="193" y="190" width="30" height="120" rx="15" fill="#3D8A5E"></rect><rect x="241" y="150" width="30" height="200" rx="15" fill="#3D8A5E"></rect><rect x="289" y="190" width="30" height="120" rx="15" fill="#3D8A5E"></rect><rect x="337" y="228" width="30" height="44" rx="15" fill="#3D8A5E"></rect></g><path d="M733.9 167.5L733.9 167.5Q741.3 171.2 742.5 179.1Q743.8 187.0 738.4 193.6L738.4 193.6Q734.7 198.7 728.9 199.2Q723.1 199.8 717.2 197.0L717.2 197.0Q710.4 193.8 702.9 192.1Q695.4 190.4 687.2 190.4L687.2 190.4Q671.9 190.4 659.9 195.3Q647.9 200.1 639.4 209.0Q630.9 217.9 626.5 230.1Q622.1 242.2 622.1 256.9L622.1 256.9Q622.1 274.2 627.1 286.9Q632.0 299.7 640.8 308.2Q649.6 316.7 661.4 320.8Q673.3 324.9 687.2 324.9L687.2 324.9Q694.8 324.9 702.5 323.5Q710.1 322.0 717.2 318.4L717.2 318.4Q723.1 315.5 728.9 316.4Q734.7 317.2 738.7 322.3L738.7 322.3Q744.4 329.4 742.8 336.9Q741.3 344.4 734.2 347.8L734.2 347.8Q726.8 351.5 719.0 353.9Q711.3 356.3 703.3 357.6Q695.4 358.8 687.2 358.8L687.2 358.8Q666.8 358.8 648.6 352.3Q630.3 345.8 616.0 333.1Q601.7 320.3 593.5 301.2Q585.3 282.1 585.3 256.9L585.3 256.9Q585.3 235.2 592.8 216.8Q600.3 198.4 614.0 184.9Q627.8 171.5 646.4 164.0Q665.1 156.5 687.2 156.5L687.2 156.5Q699.7 156.5 711.5 159.3Q723.4 162.1 733.9 167.5ZM890.8 201.8L890.8 201.8Q898.1 201.8 903.0 206.6Q907.8 211.4 907.8 219.0L907.8 219.0L907.8 338.7Q907.8 346.1 903.0 351.0Q898.1 356 890.8 356L890.8 356Q883.4 356 878.6 351.0Q873.8 346.1 873.8 338.7L873.8 338.7L873.8 324.9L880.0 327.4Q880.0 331.1 876.1 336.3Q872.1 341.6 865.3 346.7Q858.5 351.8 849.3 355.3Q840.1 358.8 829.4 358.8L829.4 358.8Q809.9 358.8 794.0 348.8Q778.2 338.7 769.0 321.0Q759.8 303.4 759.8 280.4L759.8 280.4Q759.8 257.2 769.0 239.5Q778.2 221.9 793.7 211.8Q809.3 201.8 828.2 201.8L828.2 201.8Q840.4 201.8 850.6 205.4Q860.8 209.1 868.3 214.8Q875.8 220.4 879.9 226.2Q884.0 232.0 884.0 236.0L884.0 236.0L873.8 239.7L873.8 219.0Q873.8 211.7 878.6 206.7Q883.4 201.8 890.8 201.8ZM833.6 327.7L833.6 327.7Q846.1 327.7 855.4 321.5Q864.8 315.2 870.0 304.5Q875.2 293.7 875.2 280.4L875.2 280.4Q875.2 266.9 870.0 256.1Q864.8 245.3 855.4 239.1Q846.1 232.9 833.6 232.9L833.6 232.9Q821.5 232.9 812.1 239.1Q802.8 245.3 797.5 256.1Q792.3 266.9 792.3 280.4L792.3 280.4Q792.3 293.7 797.5 304.5Q802.8 315.2 812.1 321.5Q821.5 327.7 833.6 327.7ZM978.3 163.8L978.3 338.7Q978.3 346.1 973.4 351.0Q968.4 356 961.1 356L961.1 356Q954.0 356 949.2 351.0Q944.4 346.1 944.4 338.7L944.4 338.7L944.4 163.8Q944.4 156.5 949.3 151.5Q954.3 146.6 961.7 146.6L961.7 146.6Q969.0 146.6 973.7 151.5Q978.3 156.5 978.3 163.8L978.3 163.8ZM1051.8 163.8L1051.8 338.7Q1051.8 346.1 1046.8 351.0Q1041.9 356 1034.5 356L1034.5 356Q1027.4 356 1022.6 351.0Q1017.8 346.1 1017.8 338.7L1017.8 338.7L1017.8 163.8Q1017.8 156.5 1022.8 151.5Q1027.7 146.6 1035.1 146.6L1035.1 146.6Q1042.4 146.6 1047.1 151.5Q1051.8 156.5 1051.8 163.8L1051.8 163.8ZM1178.9 358.8L1178.9 358.8Q1157.4 358.8 1138.8 350.9Q1120.1 343.0 1105.9 329.0Q1091.8 315.0 1083.7 296.6Q1075.6 278.2 1075.6 256.9L1075.6 256.9Q1075.6 235.7 1083.7 217.3Q1091.8 198.9 1105.9 184.9Q1120.1 170.9 1138.8 163.0Q1157.4 155.1 1178.9 155.1L1178.9 155.1Q1192.2 155.1 1204.7 157.9Q1217.1 160.7 1227.6 166.4L1227.6 166.4Q1231.9 168.7 1234.0 172.5Q1236.1 176.3 1236.1 180.3L1236.1 180.3Q1236.1 187.0 1231.6 192.4Q1227.0 197.8 1220.0 197.8L1220.0 197.8Q1217.7 197.8 1215.3 197.2Q1212.9 196.7 1210.6 195.5L1210.6 195.5Q1203.6 192.4 1195.6 190.7Q1187.7 189.0 1178.9 189.0L1178.9 189.0Q1160.5 189.0 1145.4 198.2Q1130.3 207.4 1121.3 222.8Q1112.4 238.3 1112.4 256.9L1112.4 256.9Q1112.4 275.3 1121.3 290.9Q1130.3 306.5 1145.4 315.7Q1160.5 324.9 1178.9 324.9L1178.9 324.9Q1187.4 324.9 1197.6 323.2Q1207.8 321.5 1214.3 318.6L1214.3 318.6L1211.8 327.1L1211.8 278.7L1216.6 283.0L1185.2 283.0Q1177.8 283.0 1172.9 278.2Q1167.9 273.4 1167.9 266.0L1167.9 266.0Q1167.9 258.6 1172.9 253.8Q1177.8 249.0 1185.2 249.0L1185.2 249.0L1231.6 249.0Q1238.9 249.0 1243.7 254.0Q1248.6 258.9 1248.6 266.3L1248.6 266.3L1248.6 326.3Q1248.6 331.9 1245.9 335.6Q1243.2 339.3 1239.8 341.6L1239.8 341.6Q1226.8 349.5 1211.3 354.2Q1195.9 358.8 1178.9 358.8ZM1389.0 204.6L1389.0 204.6Q1396.4 204.6 1401.2 209.5Q1406.0 214.5 1406.0 221.9L1406.0 221.9L1406.0 293.7Q1406.0 323.7 1389.3 341.3Q1372.6 358.8 1341.2 358.8L1341.2 358.8Q1309.8 358.8 1293.2 341.3Q1276.7 323.7 1276.7 293.7L1276.7 293.7L1276.7 221.9Q1276.7 214.5 1281.5 209.5Q1286.3 204.6 1293.7 204.6L1293.7 204.6Q1301.0 204.6 1305.8 209.5Q1310.6 214.5 1310.6 221.9L1310.6 221.9L1310.6 293.7Q1310.6 311.0 1318.3 319.4Q1325.9 327.7 1341.2 327.7L1341.2 327.7Q1356.8 327.7 1364.4 319.4Q1372.1 311.0 1372.1 293.7L1372.1 293.7L1372.1 221.9Q1372.1 214.5 1376.9 209.5Q1381.7 204.6 1389.0 204.6ZM1563.8 201.8L1563.8 201.8Q1571.1 201.8 1575.9 206.6Q1580.7 211.4 1580.7 219.0L1580.7 219.0L1580.7 338.7Q1580.7 346.1 1575.9 351.0Q1571.1 356 1563.8 356L1563.8 356Q1556.4 356 1551.6 351.0Q1546.8 346.1 1546.8 338.7L1546.8 338.7L1546.8 324.9L1553.0 327.4Q1553.0 331.1 1549.0 336.3Q1545.1 341.6 1538.3 346.7Q1531.5 351.8 1522.3 355.3Q1513.1 358.8 1502.4 358.8L1502.4 358.8Q1482.8 358.8 1467.0 348.8Q1451.1 338.7 1441.9 321.0Q1432.7 303.4 1432.7 280.4L1432.7 280.4Q1432.7 257.2 1441.9 239.5Q1451.1 221.9 1466.7 211.8Q1482.3 201.8 1501.2 201.8L1501.2 201.8Q1513.4 201.8 1523.6 205.4Q1533.8 209.1 1541.3 214.8Q1548.8 220.4 1552.9 226.2Q1557.0 232.0 1557.0 236.0L1557.0 236.0L1546.8 239.7L1546.8 219.0Q1546.8 211.7 1551.6 206.7Q1556.4 201.8 1563.8 201.8ZM1506.6 327.7L1506.6 327.7Q1519.0 327.7 1528.4 321.5Q1537.7 315.2 1543.0 304.5Q1548.2 293.7 1548.2 280.4L1548.2 280.4Q1548.2 266.9 1543.0 256.1Q1537.7 245.3 1528.4 239.1Q1519.0 232.9 1506.6 232.9L1506.6 232.9Q1494.4 232.9 1485.1 239.1Q1475.7 245.3 1470.5 256.1Q1465.3 266.9 1465.3 280.4L1465.3 280.4Q1465.3 293.7 1470.5 304.5Q1475.7 315.2 1485.1 321.5Q1494.4 327.7 1506.6 327.7ZM1631.5 356L1631.5 356Q1624.2 356 1619.3 351.0Q1614.5 346.1 1614.5 338.7L1614.5 338.7L1614.5 221.9Q1614.5 214.5 1619.3 209.5Q1624.2 204.6 1631.5 204.6L1631.5 204.6Q1638.9 204.6 1643.7 209.5Q1648.5 214.5 1648.5 221.9L1648.5 221.9L1648.5 248.5L1646.5 229.5Q1649.6 222.7 1654.6 217.5Q1659.5 212.2 1665.8 208.7Q1672.0 205.2 1679.1 203.5Q1686.1 201.8 1693.2 201.8L1693.2 201.8Q1701.7 201.8 1707.5 206.6Q1713.3 211.4 1713.3 217.9L1713.3 217.9Q1713.3 227.2 1708.5 231.3Q1703.7 235.4 1698.0 235.4L1698.0 235.4Q1692.6 235.4 1688.3 233.5Q1683.9 231.5 1678.2 231.5L1678.2 231.5Q1673.1 231.5 1667.9 233.9Q1662.6 236.3 1658.3 241.4Q1653.9 246.5 1651.2 254.0Q1648.5 261.5 1648.5 271.7L1648.5 271.7L1648.5 338.7Q1648.5 346.1 1643.7 351.0Q1638.9 356 1631.5 356ZM1852.1 146.6L1852.1 146.6Q1859.4 146.6 1864.3 151.4Q1869.1 156.2 1869.1 163.8L1869.1 163.8L1869.1 338.7Q1869.1 346.1 1864.3 351.0Q1859.4 356 1852.1 356L1852.1 356Q1844.7 356 1839.9 351.0Q1835.1 346.1 1835.1 338.7L1835.1 338.7L1835.1 324.9L1841.3 327.4Q1841.3 331.1 1837.4 336.3Q1833.4 341.6 1826.6 346.7Q1819.8 351.8 1810.6 355.3Q1801.4 358.8 1790.7 358.8L1790.7 358.8Q1771.1 358.8 1755.3 348.8Q1739.4 338.7 1730.3 321.0Q1721.1 303.4 1721.1 280.4L1721.1 280.4Q1721.1 257.2 1730.3 239.5Q1739.4 221.9 1755.0 211.8Q1770.6 201.8 1789.5 201.8L1789.5 201.8Q1801.7 201.8 1811.9 205.4Q1822.1 209.1 1829.6 214.8Q1837.1 220.4 1841.2 226.2Q1845.3 232.0 1845.3 236.0L1845.3 236.0L1835.1 239.7L1835.1 163.8Q1835.1 156.5 1839.9 151.5Q1844.7 146.6 1852.1 146.6ZM1794.9 327.7L1794.9 327.7Q1807.4 327.7 1816.7 321.5Q1826.0 315.2 1831.3 304.5Q1836.5 293.7 1836.5 280.4L1836.5 280.4Q1836.5 266.9 1831.3 256.1Q1826.0 245.3 1816.7 239.1Q1807.4 232.9 1794.9 232.9L1794.9 232.9Q1782.7 232.9 1773.4 239.1Q1764.1 245.3 1758.8 256.1Q1753.6 266.9 1753.6 280.4L1753.6 280.4Q1753.6 293.7 1758.8 304.5Q1764.1 315.2 1773.4 321.5Q1782.7 327.7 1794.9 327.7Z" fill="#1A2E1A"></path><path d="M1970.2 204.0L1978.4 202.3L1917.3 346.1Q1915.3 351.5 1911.2 354.4Q1907.1 357.4 1902.3 357.4L1902.3 357.4Q1894.6 357.4 1891.0 353.2Q1887.3 348.9 1887.3 342.7L1887.3 342.7Q1887.3 340.2 1888.1 337.3L1888.1 337.3L1958.6 168.1Q1960.9 162.4 1965.5 159.3Q1970.2 156.2 1975.6 156.8L1975.6 156.8Q1980.7 156.8 1985.1 159.7Q1989.5 162.7 1991.4 168.1L1991.4 168.1L2061.0 333.9Q2062.5 337.6 2062.5 340.7L2062.5 340.7Q2062.5 348.4 2057.5 352.9Q2052.6 357.4 2046.6 357.4L2046.6 357.4Q2041.5 357.4 2037.4 354.3Q2033.3 351.2 2031.1 345.8L2031.1 345.8L1970.2 204.0ZM2023.4 311.6L1926.1 311.6L1941.6 279.0L2018.0 279.0L2023.4 311.6ZM2118.9 175.2L2118.9 338.7Q2118.9 346.1 2113.5 351.0Q2108.1 356 2101.1 356L2101.1 356Q2093.1 356 2088.3 351.0Q2083.5 346.1 2083.5 338.7L2083.5 338.7L2083.5 175.2Q2083.5 167.8 2088.6 162.9Q2093.7 157.9 2101.6 157.9L2101.6 157.9Q2108.4 157.9 2113.7 162.9Q2118.9 167.8 2118.9 175.2L2118.9 175.2Z" fill="#4A9E6E"></path></svg>