<svg xmlns="http://www.w3.org/2000/svg" viewBox="0 0 512 512" role="img" aria-label="CallGuard AI"><g stroke-linejoin="round"><path d="M134 66 L378 66 Q412 66 412 100 L412 258 C412 358 348 428 256 470 C164 428 100 358 100 258 L100 100 Q100 66 134 66 Z" fill="none" stroke="#4A9E6E" stroke-width="60"></path><path d="M134 66 L378 66 Q412 66 412 100 L412 258 C412 358 348 428 256 470 C164 428 100 358 100 258 L100 100 Q100 66 134 66 Z" fill="#FFFFFF" stroke="#1A2E1A" stroke-width="36"></path><rect x="145" y="228" width="30" height="44" rx="15" fill="#3D8A5E"></rect><rect x="193" y="190" width="30" height="120" rx="15" fill="#3D8A5E"></rect><rect x="241" y="150" width="30" height="200" rx="15" fill="#3D8A5E"></rect><rect x="289" y="190" width="30" height="120" rx="15" fill="#3D8A5E"></rect><rect x="337" y="228" width="30" height="44" rx="15" fill="#3D8A5E"></rect></g></svg>