<svg xmlns="http://www.w3.org/2000/svg" viewBox="0 0 512 512" role="img" aria-label="CallGuard AI"><g fill="#4A9E6E"><path d="M184 92 L328 92 Q396 92 396 160 L396 276 Q396 344 328 344 L184 344 Q116 344 116 276 L116 160 Q116 92 184 92 Z"></path><path d="M160 310 L160 420 Q160 438 177 424 L268 344 L210 318 Z"></path></g><rect x="164" y="201.5" width="24" height="33" rx="12" fill="#FFFFFF"></rect><rect x="204" y="173" width="24" height="90" rx="12" fill="#FFFFFF"></rect><rect x="244" y="143" width="24" height="150" rx="12" fill="#FFFFFF"></rect><rect x="284" y="173" width="24" height="90" rx="12" fill="#FFFFFF"></rect><rect x="324" y="201.5" width="24" height="33" rx="12" fill="#FFFFFF"></rect></svg>