<svg xmlns="http://www.w3.org/2000/svg" viewBox="0 0 512 512" role="img" aria-label="CallGuard AI"><g><path d="M226.6 73.1 Q256 56 285.4 73.1 L374.6 124.9 Q404 142 404.0 176.0 L404.0 284.0 Q404 318 379.1 341.2 L280.9 432.8 Q256 456 231.1 432.8 L132.9 341.2 Q108 318 108.0 284.0 L108.0 176.0 Q108 142 137.4 124.9 Z" fill="#1A2E1A"></path><rect x="145" y="230" width="30" height="44" rx="15" fill="#6CC18D"></rect><rect x="193" y="192" width="30" height="120" rx="15" fill="#6CC18D"></rect><rect x="241" y="152" width="30" height="200" rx="15" fill="#6CC18D"></rect><rect x="289" y="192" width="30" height="120" rx="15" fill="#6CC18D"></rect><rect x="337" y="230" width="30" height="44" rx="15" fill="#6CC18D"></rect></g></svg>