<svg xmlns="http://www.w3.org/2000/svg" viewBox="28 0 2150 512" role="img" aria-label="CallGuard AI"><g><path d="M120 252 C120 372 178 436 256 466 C334 436 392 372 392 252" fill="none" stroke="#1A2E1A" stroke-width="34" stroke-linecap="round"></path><rect x="145" y="188" width="30" height="44" rx="15" fill="#4A9E6E"></rect><rect x="193" y="150" width="30" height="120" rx="15" fill="#4A9E6E"></rect><rect x="241" y="110" width="30" height="200" rx="15" fill="#4A9E6E"></rect><rect x="289" y="150" width="30" height="120" rx="15" fill="#4A9E6E"></rect><rect x="337" y="188" width="30" height="44" rx="15" fill="#4A9E6E"></rect></g><path d="M733.9 112.5L733.9 112.5Q741.3 116.2 742.5 124.1Q743.8 132.0 738.4 138.6L738.4 138.6Q734.7 143.7 728.9 144.2Q723.1 144.8 717.2 142.0L717.2 142.0Q710.4 138.8 702.9 137.1Q695.4 135.4 687.2 135.4L687.2 135.4Q671.9 135.4 659.9 140.3Q647.9 145.1 639.4 154.0Q630.9 162.9 626.5 175.1Q622.1 187.2 622.1 201.9L622.1 201.9Q622.1 219.2 627.1 231.9Q632.0 244.7 640.8 253.2Q649.6 261.7 661.4 265.8Q673.3 269.9 687.2 269.9L687.2 269.9Q694.8 269.9 702.5 268.5Q710.1 267.0 717.2 263.4L717.2 263.4Q723.1 260.5 728.9 261.4Q734.7 262.2 738.7 267.3L738.7 267.3Q744.4 274.4 742.8 281.9Q741.3 289.4 734.2 292.8L734.2 292.8Q726.8 296.5 719.0 298.9Q711.3 301.3 703.3 302.6Q695.4 303.8 687.2 303.8L687.2 303.8Q666.8 303.8 648.6 297.3Q630.3 290.8 616.0 278.1Q601.7 265.3 593.5 246.2Q585.3 227.1 585.3 201.9L585.3 201.9Q585.3 180.2 592.8 161.8Q600.3 143.4 614.0 129.9Q627.8 116.5 646.4 109.0Q665.1 101.5 687.2 101.5L687.2 101.5Q699.7 101.5 711.5 104.3Q723.4 107.1 733.9 112.5ZM890.8 146.8L890.8 146.8Q898.1 146.8 903.0 151.6Q907.8 156.4 907.8 164.0L907.8 164.0L907.8 283.7Q907.8 291.1 903.0 296.0Q898.1 301 890.8 301L890.8 301Q883.4 301 878.6 296.0Q873.8 291.1 873.8 283.7L873.8 283.7L873.8 269.9L880.0 272.4Q880.0 276.1 876.1 281.3Q872.1 286.6 865.3 291.7Q858.5 296.8 849.3 300.3Q840.1 303.8 829.4 303.8L829.4 303.8Q809.9 303.8 794.0 293.8Q778.2 283.7 769.0 266.0Q759.8 248.4 759.8 225.4L759.8 225.4Q759.8 202.2 769.0 184.5Q778.2 166.9 793.7 156.8Q809.3 146.8 828.2 146.8L828.2 146.8Q840.4 146.8 850.6 150.4Q860.8 154.1 868.3 159.8Q875.8 165.4 879.9 171.2Q884.0 177.0 884.0 181.0L884.0 181.0L873.8 184.7L873.8 164.0Q873.8 156.7 878.6 151.7Q883.4 146.8 890.8 146.8ZM833.6 272.7L833.6 272.7Q846.1 272.7 855.4 266.5Q864.8 260.2 870.0 249.5Q875.2 238.7 875.2 225.4L875.2 225.4Q875.2 211.9 870.0 201.1Q864.8 190.3 855.4 184.1Q846.1 177.9 833.6 177.9L833.6 177.9Q821.5 177.9 812.1 184.1Q802.8 190.3 797.5 201.1Q792.3 211.9 792.3 225.4L792.3 225.4Q792.3 238.7 797.5 249.5Q802.8 260.2 812.1 266.5Q821.5 272.7 833.6 272.7ZM978.3 108.8L978.3 283.7Q978.3 291.1 973.4 296.0Q968.4 301 961.1 301L961.1 301Q954.0 301 949.2 296.0Q944.4 291.1 944.4 283.7L944.4 283.7L944.4 108.8Q944.4 101.5 949.3 96.5Q954.3 91.6 961.7 91.6L961.7 91.6Q969.0 91.6 973.7 96.5Q978.3 101.5 978.3 108.8L978.3 108.8ZM1051.8 108.8L1051.8 283.7Q1051.8 291.1 1046.8 296.0Q1041.9 301 1034.5 301L1034.5 301Q1027.4 301 1022.6 296.0Q1017.8 291.1 1017.8 283.7L1017.8 283.7L1017.8 108.8Q1017.8 101.5 1022.8 96.5Q1027.7 91.6 1035.1 91.6L1035.1 91.6Q1042.4 91.6 1047.1 96.5Q1051.8 101.5 1051.8 108.8L1051.8 108.8ZM1178.9 303.8L1178.9 303.8Q1157.4 303.8 1138.8 295.9Q1120.1 288.0 1105.9 274.0Q1091.8 260.0 1083.7 241.6Q1075.6 223.2 1075.6 201.9L1075.6 201.9Q1075.6 180.7 1083.7 162.3Q1091.8 143.9 1105.9 129.9Q1120.1 115.9 1138.8 108.0Q1157.4 100.1 1178.9 100.1L1178.9 100.1Q1192.2 100.1 1204.7 102.9Q1217.1 105.7 1227.6 111.4L1227.6 111.4Q1231.9 113.7 1234.0 117.5Q1236.1 121.3 1236.1 125.3L1236.1 125.3Q1236.1 132.0 1231.6 137.4Q1227.0 142.8 1220.0 142.8L1220.0 142.8Q1217.7 142.8 1215.3 142.2Q1212.9 141.7 1210.6 140.5L1210.6 140.5Q1203.6 137.4 1195.6 135.7Q1187.7 134.0 1178.9 134.0L1178.9 134.0Q1160.5 134.0 1145.4 143.2Q1130.3 152.4 1121.3 167.8Q1112.4 183.3 1112.4 201.9L1112.4 201.9Q1112.4 220.3 1121.3 235.9Q1130.3 251.5 1145.4 260.7Q1160.5 269.9 1178.9 269.9L1178.9 269.9Q1187.4 269.9 1197.6 268.2Q1207.8 266.5 1214.3 263.6L1214.3 263.6L1211.8 272.1L1211.8 223.7L1216.6 228.0L1185.2 228.0Q1177.8 228.0 1172.9 223.2Q1167.9 218.4 1167.9 211.0L1167.9 211.0Q1167.9 203.6 1172.9 198.8Q1177.8 194.0 1185.2 194.0L1185.2 194.0L1231.6 194.0Q1238.9 194.0 1243.7 199.0Q1248.6 203.9 1248.6 211.3L1248.6 211.3L1248.6 271.3Q1248.6 276.9 1245.9 280.6Q1243.2 284.3 1239.8 286.6L1239.8 286.6Q1226.8 294.5 1211.3 299.2Q1195.9 303.8 1178.9 303.8ZM1389.0 149.6L1389.0 149.6Q1396.4 149.6 1401.2 154.5Q1406.0 159.5 1406.0 166.9L1406.0 166.9L1406.0 238.7Q1406.0 268.7 1389.3 286.3Q1372.6 303.8 1341.2 303.8L1341.2 303.8Q1309.8 303.8 1293.2 286.3Q1276.7 268.7 1276.7 238.7L1276.7 238.7L1276.7 166.9Q1276.7 159.5 1281.5 154.5Q1286.3 149.6 1293.7 149.6L1293.7 149.6Q1301.0 149.6 1305.8 154.5Q1310.6 159.5 1310.6 166.9L1310.6 166.9L1310.6 238.7Q1310.6 256.0 1318.3 264.4Q1325.9 272.7 1341.2 272.7L1341.2 272.7Q1356.8 272.7 1364.4 264.4Q1372.1 256.0 1372.1 238.7L1372.1 238.7L1372.1 166.9Q1372.1 159.5 1376.9 154.5Q1381.7 149.6 1389.0 149.6ZM1563.8 146.8L1563.8 146.8Q1571.1 146.8 1575.9 151.6Q1580.7 156.4 1580.7 164.0L1580.7 164.0L1580.7 283.7Q1580.7 291.1 1575.9 296.0Q1571.1 301 1563.8 301L1563.8 301Q1556.4 301 1551.6 296.0Q1546.8 291.1 1546.8 283.7L1546.8 283.7L1546.8 269.9L1553.0 272.4Q1553.0 276.1 1549.0 281.3Q1545.1 286.6 1538.3 291.7Q1531.5 296.8 1522.3 300.3Q1513.1 303.8 1502.4 303.8L1502.4 303.8Q1482.8 303.8 1467.0 293.8Q1451.1 283.7 1441.9 266.0Q1432.7 248.4 1432.7 225.4L1432.7 225.4Q1432.7 202.2 1441.9 184.5Q1451.1 166.9 1466.7 156.8Q1482.3 146.8 1501.2 146.8L1501.2 146.8Q1513.4 146.8 1523.6 150.4Q1533.8 154.1 1541.3 159.8Q1548.8 165.4 1552.9 171.2Q1557.0 177.0 1557.0 181.0L1557.0 181.0L1546.8 184.7L1546.8 164.0Q1546.8 156.7 1551.6 151.7Q1556.4 146.8 1563.8 146.8ZM1506.6 272.7L1506.6 272.7Q1519.0 272.7 1528.4 266.5Q1537.7 260.2 1543.0 249.5Q1548.2 238.7 1548.2 225.4L1548.2 225.4Q1548.2 211.9 1543.0 201.1Q1537.7 190.3 1528.4 184.1Q1519.0 177.9 1506.6 177.9L1506.6 177.9Q1494.4 177.9 1485.1 184.1Q1475.7 190.3 1470.5 201.1Q1465.3 211.9 1465.3 225.4L1465.3 225.4Q1465.3 238.7 1470.5 249.5Q1475.7 260.2 1485.1 266.5Q1494.4 272.7 1506.6 272.7ZM1631.5 301L1631.5 301Q1624.2 301 1619.3 296.0Q1614.5 291.1 1614.5 283.7L1614.5 283.7L1614.5 166.9Q1614.5 159.5 1619.3 154.5Q1624.2 149.6 1631.5 149.6L1631.5 149.6Q1638.9 149.6 1643.7 154.5Q1648.5 159.5 1648.5 166.9L1648.5 166.9L1648.5 193.5L1646.5 174.5Q1649.6 167.7 1654.6 162.5Q1659.5 157.2 1665.8 153.7Q1672.0 150.2 1679.1 148.5Q1686.1 146.8 1693.2 146.8L1693.2 146.8Q1701.7 146.8 1707.5 151.6Q1713.3 156.4 1713.3 162.9L1713.3 162.9Q1713.3 172.2 1708.5 176.3Q1703.7 180.4 1698.0 180.4L1698.0 180.4Q1692.6 180.4 1688.3 178.5Q1683.9 176.5 1678.2 176.5L1678.2 176.5Q1673.1 176.5 1667.9 178.9Q1662.6 181.3 1658.3 186.4Q1653.9 191.5 1651.2 199.0Q1648.5 206.5 1648.5 216.7L1648.5 216.7L1648.5 283.7Q1648.5 291.1 1643.7 296.0Q1638.9 301 1631.5 301ZM1852.1 91.6L1852.1 91.6Q1859.4 91.6 1864.3 96.4Q1869.1 101.2 1869.1 108.8L1869.1 108.8L1869.1 283.7Q1869.1 291.1 1864.3 296.0Q1859.4 301 1852.1 301L1852.1 301Q1844.7 301 1839.9 296.0Q1835.1 291.1 1835.1 283.7L1835.1 283.7L1835.1 269.9L1841.3 272.4Q1841.3 276.1 1837.4 281.3Q1833.4 286.6 1826.6 291.7Q1819.8 296.8 1810.6 300.3Q1801.4 303.8 1790.7 303.8L1790.7 303.8Q1771.1 303.8 1755.3 293.8Q1739.4 283.7 1730.3 266.0Q1721.1 248.4 1721.1 225.4L1721.1 225.4Q1721.1 202.2 1730.3 184.5Q1739.4 166.9 1755.0 156.8Q1770.6 146.8 1789.5 146.8L1789.5 146.8Q1801.7 146.8 1811.9 150.4Q1822.1 154.1 1829.6 159.8Q1837.1 165.4 1841.2 171.2Q1845.3 177.0 1845.3 181.0L1845.3 181.0L1835.1 184.7L1835.1 108.8Q1835.1 101.5 1839.9 96.5Q1844.7 91.6 1852.1 91.6ZM1794.9 272.7L1794.9 272.7Q1807.4 272.7 1816.7 266.5Q1826.0 260.2 1831.3 249.5Q1836.5 238.7 1836.5 225.4L1836.5 225.4Q1836.5 211.9 1831.3 201.1Q1826.0 190.3 1816.7 184.1Q1807.4 177.9 1794.9 177.9L1794.9 177.9Q1782.7 177.9 1773.4 184.1Q1764.1 190.3 1758.8 201.1Q1753.6 211.9 1753.6 225.4L1753.6 225.4Q1753.6 238.7 1758.8 249.5Q1764.1 260.2 1773.4 266.5Q1782.7 272.7 1794.9 272.7Z" fill="#1A2E1A"></path><path d="M1970.2 149.0L1978.4 147.3L1917.3 291.1Q1915.3 296.5 1911.2 299.4Q1907.1 302.4 1902.3 302.4L1902.3 302.4Q1894.6 302.4 1891.0 298.2Q1887.3 293.9 1887.3 287.7L1887.3 287.7Q1887.3 285.2 1888.1 282.3L1888.1 282.3L1958.6 113.1Q1960.9 107.4 1965.5 104.3Q1970.2 101.2 1975.6 101.8L1975.6 101.8Q1980.7 101.8 1985.1 104.7Q1989.5 107.7 1991.4 113.1L1991.4 113.1L2061.0 278.9Q2062.5 282.6 2062.5 285.7L2062.5 285.7Q2062.5 293.4 2057.5 297.9Q2052.6 302.4 2046.6 302.4L2046.6 302.4Q2041.5 302.4 2037.4 299.3Q2033.3 296.2 2031.1 290.8L2031.1 290.8L1970.2 149.0ZM2023.4 256.6L1926.1 256.6L1941.6 224.0L2018.0 224.0L2023.4 256.6ZM2118.9 120.2L2118.9 283.7Q2118.9 291.1 2113.5 296.0Q2108.1 301 2101.1 301L2101.1 301Q2093.1 301 2088.3 296.0Q2083.5 291.1 2083.5 283.7L2083.5 283.7L2083.5 120.2Q2083.5 112.8 2088.6 107.9Q2093.7 102.9 2101.6 102.9L2101.6 102.9Q2108.4 102.9 2113.7 107.9Q2118.9 112.8 2118.9 120.2L2118.9 120.2Z" fill="#4A9E6E"></path><path d="M606.1 383.5L599.2 383.5Q598.9 381.0 597.0 379.6Q595.0 378.2 591.8 378.2L591.8 378.2Q589.6 378.2 588.0 378.9Q586.4 379.6 585.6 380.7Q584.7 381.9 584.7 383.3L584.7 383.3Q584.7 384.6 585.3 385.5Q585.8 386.4 586.8 387.0Q587.8 387.6 589.0 388.0Q590.2 388.5 591.4 388.7L591.4 388.7L595.1 389.7Q597.3 390.2 599.3 391.1Q601.4 391.9 603.0 393.3Q604.7 394.6 605.6 396.5Q606.6 398.4 606.6 401.0L606.6 401.0Q606.6 404.4 604.8 407.0Q603.1 409.7 599.7 411.1Q596.4 412.6 591.7 412.6L591.7 412.6Q587.1 412.6 583.8 411.2Q580.4 409.8 578.5 407.0Q576.6 404.3 576.5 400.4L576.5 400.4L583.5 400.4Q583.6 402.5 584.7 403.8Q585.8 405.2 587.6 405.8Q589.4 406.5 591.6 406.5L591.6 406.5Q594.0 406.5 595.7 405.8Q597.5 405.1 598.5 403.9Q599.5 402.6 599.5 400.9L599.5 400.9Q599.5 399.4 598.6 398.4Q597.7 397.4 596.1 396.7Q594.5 396.0 592.4 395.5L592.4 395.5L588.0 394.3Q583.1 393.1 580.3 390.5Q577.5 388.0 577.5 383.8L577.5 383.8Q577.5 380.3 579.4 377.7Q581.3 375.1 584.5 373.6Q587.8 372.2 591.9 372.2L591.9 372.2Q596.1 372.2 599.2 373.6Q602.4 375.1 604.2 377.6Q606.0 380.2 606.1 383.5L606.1 383.5ZM634.1 412L634.1 372.7L642.8 372.7L654.5 401.2L655.0 401.2L666.6 372.7L675.3 372.7L675.3 412L668.5 412L668.5 385.0L668.1 385.0L657.3 411.9L652.2 411.9L641.3 385.0L641.0 385.0L641.0 412L634.1 412ZM719.8 380.8L709.3 412L701.7 412L715.6 372.7L724.3 372.7L738.2 412L730.6 412L720.1 380.8L719.8 380.8ZM709.6 402.3L709.6 396.6L730.3 396.6L730.3 402.3L709.6 402.3ZM771.7 412L764.6 412L764.6 372.7L779.3 372.7Q783.8 372.7 786.9 374.3Q790.0 375.9 791.6 378.7Q793.1 381.5 793.1 385.3L793.1 385.3Q793.1 389.1 791.5 391.8Q789.9 394.6 786.8 396.1Q783.7 397.6 779.2 397.6L779.2 397.6L768.7 397.6L768.7 391.7L778.2 391.7Q780.9 391.7 782.6 391.0Q784.3 390.2 785.1 388.8Q785.9 387.4 785.9 385.3L785.9 385.3Q785.9 383.2 785.1 381.7Q784.2 380.2 782.6 379.4Q780.9 378.7 778.2 378.7L778.2 378.7L771.7 378.7L771.7 412ZM777.1 394.2L784.9 394.2L794.6 412L786.6 412L777.1 394.2ZM831.3 378.7L819.2 378.7L819.2 372.7L850.5 372.7L850.5 378.7L838.4 378.7L838.4 412L831.3 412L831.3 378.7ZM903.4 412L877.7 412L877.7 372.7L903.3 372.7L903.3 378.7L884.9 378.7L884.9 389.4L902.0 389.4L902.0 395.3L884.9 395.3L884.9 406.0L903.4 406.0L903.4 412ZM938.9 412L931.8 412L931.8 372.7L946.5 372.7Q951.0 372.7 954.1 374.3Q957.2 375.9 958.8 378.7Q960.3 381.5 960.3 385.3L960.3 385.3Q960.3 389.1 958.7 391.8Q957.1 394.6 954.0 396.1Q950.9 397.6 946.4 397.6L946.4 397.6L935.9 397.6L935.9 391.7L945.4 391.7Q948.1 391.7 949.8 391.0Q951.5 390.2 952.3 388.8Q953.1 387.4 953.1 385.3L953.1 385.3Q953.1 383.2 952.3 381.7Q951.4 380.2 949.8 379.4Q948.1 378.7 945.4 378.7L945.4 378.7L938.9 378.7L938.9 412ZM944.3 394.2L952.1 394.2L961.8 412L953.8 412L944.3 394.2ZM1056.3 386.0L1056.3 386.0L1049.2 386.0Q1048.9 384.2 1048.0 382.8Q1047.2 381.5 1046.0 380.5Q1044.8 379.6 1043.2 379.1Q1041.6 378.6 1039.8 378.6L1039.8 378.6Q1036.6 378.6 1034.1 380.2Q1031.7 381.8 1030.3 384.9Q1028.9 387.9 1028.9 392.4L1028.9 392.4Q1028.9 396.9 1030.3 399.9Q1031.7 403.0 1034.2 404.6Q1036.6 406.2 1039.8 406.2L1039.8 406.2Q1041.6 406.2 1043.1 405.7Q1044.7 405.2 1045.9 404.3Q1047.1 403.4 1048.0 402.0Q1048.8 400.7 1049.2 399.0L1049.2 399.0L1056.3 399.0Q1055.9 401.8 1054.6 404.3Q1053.3 406.7 1051.1 408.6Q1049.0 410.4 1046.1 411.5Q1043.2 412.5 1039.7 412.5L1039.7 412.5Q1034.5 412.5 1030.5 410.1Q1026.4 407.7 1024.1 403.2Q1021.7 398.7 1021.7 392.4L1021.7 392.4Q1021.7 386.0 1024.1 381.5Q1026.4 377.0 1030.5 374.6Q1034.6 372.2 1039.7 372.2L1039.7 372.2Q1043.0 372.2 1045.8 373.1Q1048.6 374.0 1050.8 375.8Q1053.0 377.6 1054.5 380.1Q1055.9 382.7 1056.3 386.0ZM1099.1 380.8L1088.6 412L1081.0 412L1094.9 372.7L1103.6 372.7L1117.5 412L1109.9 412L1099.4 380.8L1099.1 380.8ZM1088.9 402.3L1088.9 396.6L1109.6 396.6L1109.6 402.3L1088.9 402.3ZM1168.3 412L1143.9 412L1143.9 372.7L1151.0 372.7L1151.0 406.0L1168.3 406.0L1168.3 412ZM1220.1 412L1195.7 412L1195.7 372.7L1202.8 372.7L1202.8 406.0L1220.1 406.0L1220.1 412ZM1275.6 383.5L1268.8 383.5Q1268.5 381.0 1266.5 379.6Q1264.5 378.2 1261.4 378.2L1261.4 378.2Q1259.1 378.2 1257.6 378.9Q1256.0 379.6 1255.1 380.7Q1254.3 381.9 1254.3 383.3L1254.3 383.3Q1254.3 384.6 1254.8 385.5Q1255.4 386.4 1256.4 387.0Q1257.3 387.6 1258.5 388.0Q1259.7 388.5 1260.9 388.7L1260.9 388.7L1264.6 389.7Q1266.8 390.2 1268.9 391.1Q1271.0 391.9 1272.6 393.3Q1274.2 394.6 1275.2 396.5Q1276.2 398.4 1276.2 401.0L1276.2 401.0Q1276.2 404.4 1274.4 407.0Q1272.6 409.7 1269.3 411.1Q1266.0 412.6 1261.3 412.6L1261.3 412.6Q1256.7 412.6 1253.3 411.2Q1249.9 409.8 1248.0 407.0Q1246.2 404.3 1246.0 400.4L1246.0 400.4L1253.0 400.4Q1253.2 402.5 1254.3 403.8Q1255.4 405.2 1257.2 405.8Q1259.0 406.5 1261.2 406.5L1261.2 406.5Q1263.5 406.5 1265.3 405.8Q1267.0 405.1 1268.0 403.9Q1269.0 402.6 1269.0 400.9L1269.0 400.9Q1269.0 399.4 1268.1 398.4Q1267.3 397.4 1265.7 396.7Q1264.1 396.0 1262.0 395.5L1262.0 395.5L1257.5 394.3Q1252.7 393.1 1249.9 390.5Q1247.0 388.0 1247.0 383.8L1247.0 383.8Q1247.0 380.3 1248.9 377.7Q1250.8 375.1 1254.1 373.6Q1257.3 372.2 1261.5 372.2L1261.5 372.2Q1265.6 372.2 1268.8 373.6Q1272.0 375.1 1273.8 377.6Q1275.6 380.2 1275.6 383.5L1275.6 383.5ZM1403.4 383.5L1396.5 383.5Q1396.3 381.0 1394.3 379.6Q1392.3 378.2 1389.1 378.2L1389.1 378.2Q1386.9 378.2 1385.3 378.9Q1383.7 379.6 1382.9 380.7Q1382.0 381.9 1382.0 383.3L1382.0 383.3Q1382.0 384.6 1382.6 385.5Q1383.2 386.4 1384.1 387.0Q1385.1 387.6 1386.3 388.0Q1387.5 388.5 1388.7 388.7L1388.7 388.7L1392.4 389.7Q1394.6 390.2 1396.7 391.1Q1398.7 391.9 1400.4 393.3Q1402.0 394.6 1403.0 396.5Q1403.9 398.4 1403.9 401.0L1403.9 401.0Q1403.9 404.4 1402.2 407.0Q1400.4 409.7 1397.1 411.1Q1393.7 412.6 1389.0 412.6L1389.0 412.6Q1384.4 412.6 1381.1 411.2Q1377.7 409.8 1375.8 407.0Q1373.9 404.3 1373.8 400.4L1373.8 400.4L1380.8 400.4Q1380.9 402.5 1382.0 403.8Q1383.2 405.2 1384.9 405.8Q1386.7 406.5 1389.0 406.5L1389.0 406.5Q1391.3 406.5 1393.0 405.8Q1394.8 405.1 1395.8 403.9Q1396.8 402.6 1396.8 400.9L1396.8 400.9Q1396.8 399.4 1395.9 398.4Q1395.0 397.4 1393.4 396.7Q1391.9 396.0 1389.8 395.5L1389.8 395.5L1385.3 394.3Q1380.4 393.1 1377.6 390.5Q1374.8 388.0 1374.8 383.8L1374.8 383.8Q1374.8 380.3 1376.7 377.7Q1378.6 375.1 1381.9 373.6Q1385.1 372.2 1389.2 372.2L1389.2 372.2Q1393.4 372.2 1396.6 373.6Q1399.7 375.1 1401.5 377.6Q1403.3 380.2 1403.4 383.5L1403.4 383.5ZM1446.4 380.8L1435.9 412L1428.3 412L1442.1 372.7L1450.9 372.7L1464.7 412L1457.2 412L1446.7 380.8L1446.4 380.8ZM1436.1 402.3L1436.1 396.6L1456.8 396.6L1456.8 402.3L1436.1 402.3ZM1498.2 412L1491.1 412L1491.1 372.7L1516.3 372.7L1516.3 378.7L1498.2 378.7L1498.2 389.4L1514.6 389.4L1514.6 395.3L1498.2 395.3L1498.2 412ZM1569.7 412L1544.0 412L1544.0 372.7L1569.5 372.7L1569.5 378.7L1551.1 378.7L1551.1 389.4L1568.2 389.4L1568.2 395.3L1551.1 395.3L1551.1 406.0L1569.7 406.0L1569.7 412ZM1605.1 412L1598.0 412L1598.0 372.7L1612.7 372.7Q1617.2 372.7 1620.3 374.3Q1623.4 375.9 1625.0 378.7Q1626.6 381.5 1626.6 385.3L1626.6 385.3Q1626.6 389.1 1625.0 391.8Q1623.4 394.6 1620.2 396.1Q1617.1 397.6 1612.6 397.6L1612.6 397.6L1602.1 397.6L1602.1 391.7L1611.7 391.7Q1614.3 391.7 1616.0 391.0Q1617.7 390.2 1618.5 388.8Q1619.3 387.4 1619.3 385.3L1619.3 385.3Q1619.3 383.2 1618.5 381.7Q1617.7 380.2 1616.0 379.4Q1614.3 378.7 1611.6 378.7L1611.6 378.7L1605.1 378.7L1605.1 412ZM1610.5 394.2L1618.3 394.2L1628.0 412L1620.1 412L1610.5 394.2ZM1704.8 412L1688.9 412L1688.9 372.7L1704.0 372.7Q1708.2 372.7 1711.1 374.1Q1713.9 375.4 1715.3 377.7Q1716.7 380.0 1716.7 382.9L1716.7 382.9Q1716.7 385.3 1715.8 387.0Q1714.9 388.7 1713.3 389.8Q1711.8 390.8 1709.8 391.3L1709.8 391.3L1709.8 391.7Q1711.9 391.8 1713.9 392.9Q1715.8 394.1 1717.0 396.2Q1718.2 398.3 1718.2 401.3L1718.2 401.3Q1718.2 404.3 1716.8 406.8Q1715.3 409.2 1712.3 410.6Q1709.3 412 1704.8 412L1704.8 412ZM1696.1 394.5L1696.1 406.1L1703.7 406.1Q1707.6 406.1 1709.3 404.6Q1711.0 403.1 1711.0 400.7L1711.0 400.7Q1711.0 399.0 1710.1 397.6Q1709.3 396.2 1707.7 395.4Q1706.1 394.5 1703.9 394.5L1703.9 394.5L1696.1 394.5ZM1696.1 378.6L1696.1 389.4L1703.1 389.4Q1704.9 389.4 1706.4 388.7Q1707.9 388.1 1708.7 386.8Q1709.6 385.6 1709.6 383.8L1709.6 383.8Q1709.6 381.5 1708.0 380.1Q1706.4 378.6 1703.2 378.6L1703.2 378.6L1696.1 378.6ZM1770.4 397.8L1770.4 372.7L1777.5 372.7L1777.5 398.4Q1777.5 402.6 1775.5 405.8Q1773.5 409.0 1770.0 410.8Q1766.4 412.6 1761.6 412.6L1761.6 412.6Q1756.8 412.6 1753.2 410.8Q1749.6 409.0 1747.6 405.8Q1745.6 402.6 1745.6 398.4L1745.6 398.4L1745.6 372.7L1752.8 372.7L1752.8 397.8Q1752.8 400.2 1753.8 402.2Q1754.9 404.1 1756.9 405.2Q1758.9 406.2 1761.6 406.2L1761.6 406.2Q1764.3 406.2 1766.3 405.2Q1768.2 404.1 1769.3 402.2Q1770.4 400.2 1770.4 397.8L1770.4 397.8ZM1834.7 383.5L1827.8 383.5Q1827.5 381.0 1825.6 379.6Q1823.6 378.2 1820.4 378.2L1820.4 378.2Q1818.2 378.2 1816.6 378.9Q1815.0 379.6 1814.2 380.7Q1813.3 381.9 1813.3 383.3L1813.3 383.3Q1813.3 384.6 1813.9 385.5Q1814.4 386.4 1815.4 387.0Q1816.4 387.6 1817.6 388.0Q1818.8 388.5 1820.0 388.7L1820.0 388.7L1823.6 389.7Q1825.9 390.2 1827.9 391.1Q1830.0 391.9 1831.6 393.3Q1833.3 394.6 1834.2 396.5Q1835.2 398.4 1835.2 401.0L1835.2 401.0Q1835.2 404.4 1833.4 407.0Q1831.7 409.7 1828.3 411.1Q1825.0 412.6 1820.3 412.6L1820.3 412.6Q1815.7 412.6 1812.3 411.2Q1809.0 409.8 1807.1 407.0Q1805.2 404.3 1805.0 400.4L1805.0 400.4L1812.0 400.4Q1812.2 402.5 1813.3 403.8Q1814.4 405.2 1816.2 405.8Q1818.0 406.5 1820.2 406.5L1820.2 406.5Q1822.6 406.5 1824.3 405.8Q1826.1 405.1 1827.1 403.9Q1828.1 402.6 1828.1 400.9L1828.1 400.9Q1828.1 399.4 1827.2 398.4Q1826.3 397.4 1824.7 396.7Q1823.1 396.0 1821.0 395.5L1821.0 395.5L1816.6 394.3Q1811.7 393.1 1808.9 390.5Q1806.1 388.0 1806.1 383.8L1806.1 383.8Q1806.1 380.3 1808.0 377.7Q1809.9 375.1 1813.1 373.6Q1816.4 372.2 1820.5 372.2L1820.5 372.2Q1824.7 372.2 1827.8 373.6Q1831.0 375.1 1832.8 377.6Q1834.6 380.2 1834.7 383.5L1834.7 383.5ZM1862.7 372.7L1869.8 372.7L1869.8 412L1862.7 412L1862.7 372.7ZM1924.0 372.7L1931.1 372.7L1931.1 412L1924.7 412L1906.2 385.2L1905.9 385.2L1905.9 412L1898.8 412L1898.8 372.7L1905.1 372.7L1923.6 399.5L1924.0 399.5L1924.0 372.7ZM1985.7 412L1960.0 412L1960.0 372.7L1985.5 372.7L1985.5 378.7L1967.1 378.7L1967.1 389.4L1984.2 389.4L1984.2 395.3L1967.1 395.3L1967.1 406.0L1985.7 406.0L1985.7 412ZM2042.2 383.5L2035.4 383.5Q2035.1 381.0 2033.1 379.6Q2031.1 378.2 2028.0 378.2L2028.0 378.2Q2025.7 378.2 2024.1 378.9Q2022.5 379.6 2021.7 380.7Q2020.9 381.9 2020.8 383.3L2020.8 383.3Q2020.8 384.6 2021.4 385.5Q2022.0 386.4 2022.9 387.0Q2023.9 387.6 2025.1 388.0Q2026.3 388.5 2027.5 388.7L2027.5 388.7L2031.2 389.7Q2033.4 390.2 2035.5 391.1Q2037.5 391.9 2039.2 393.3Q2040.8 394.6 2041.8 396.5Q2042.7 398.4 2042.7 401.0L2042.7 401.0Q2042.7 404.4 2041.0 407.0Q2039.2 409.7 2035.9 411.1Q2032.6 412.6 2027.8 412.6L2027.8 412.6Q2023.3 412.6 2019.9 411.2Q2016.5 409.8 2014.6 407.0Q2012.7 404.3 2012.6 400.4L2012.6 400.4L2019.6 400.4Q2019.7 402.5 2020.9 403.8Q2022.0 405.2 2023.8 405.8Q2025.6 406.5 2027.8 406.5L2027.8 406.5Q2030.1 406.5 2031.9 405.8Q2033.6 405.1 2034.6 403.9Q2035.6 402.6 2035.6 400.9L2035.6 400.9Q2035.6 399.4 2034.7 398.4Q2033.8 397.4 2032.3 396.7Q2030.7 396.0 2028.6 395.5L2028.6 395.5L2024.1 394.3Q2019.2 393.1 2016.4 390.5Q2013.6 388.0 2013.6 383.8L2013.6 383.8Q2013.6 380.3 2015.5 377.7Q2017.4 375.1 2020.7 373.6Q2023.9 372.2 2028.0 372.2L2028.0 372.2Q2032.2 372.2 2035.4 373.6Q2038.5 375.1 2040.3 377.6Q2042.1 380.2 2042.2 383.5L2042.2 383.5ZM2098.5 383.5L2091.6 383.5Q2091.3 381.0 2089.4 379.6Q2087.4 378.2 2084.2 378.2L2084.2 378.2Q2082.0 378.2 2080.4 378.9Q2078.8 379.6 2078.0 380.7Q2077.1 381.9 2077.1 383.3L2077.1 383.3Q2077.1 384.6 2077.7 385.5Q2078.2 386.4 2079.2 387.0Q2080.2 387.6 2081.4 388.0Q2082.6 388.5 2083.8 388.7L2083.8 388.7L2087.5 389.7Q2089.7 390.2 2091.7 391.1Q2093.8 391.9 2095.4 393.3Q2097.1 394.6 2098.0 396.5Q2099.0 398.4 2099.0 401.0L2099.0 401.0Q2099.0 404.4 2097.2 407.0Q2095.5 409.7 2092.1 411.1Q2088.8 412.6 2084.1 412.6L2084.1 412.6Q2079.5 412.6 2076.1 411.2Q2072.8 409.8 2070.9 407.0Q2069.0 404.3 2068.9 400.4L2068.9 400.4L2075.9 400.4Q2076.0 402.5 2077.1 403.8Q2078.2 405.2 2080.0 405.8Q2081.8 406.5 2084.0 406.5L2084.0 406.5Q2086.4 406.5 2088.1 405.8Q2089.9 405.1 2090.9 403.9Q2091.9 402.6 2091.9 400.9L2091.9 400.9Q2091.9 399.4 2091.0 398.4Q2090.1 397.4 2088.5 396.7Q2086.9 396.0 2084.8 395.5L2084.8 395.5L2080.4 394.3Q2075.5 393.1 2072.7 390.5Q2069.9 388.0 2069.9 383.8L2069.9 383.8Q2069.9 380.3 2071.8 377.7Q2073.7 375.1 2076.9 373.6Q2080.2 372.2 2084.3 372.2L2084.3 372.2Q2088.5 372.2 2091.6 373.6Q2094.8 375.1 2096.6 377.6Q2098.4 380.2 2098.5 383.5L2098.5 383.5Z" fill="#1A2E1A"></path><path d="M1307.7 412.4L1307.7 412.4Q1305.9 412.4 1304.7 411.2Q1303.4 410.0 1303.4 408.2L1303.4 408.2Q1303.4 406.5 1304.7 405.3Q1305.9 404.0 1307.7 404.0L1307.7 404.0Q1309.3 404.0 1310.6 405.3Q1311.9 406.5 1311.9 408.2L1311.9 408.2Q1311.9 409.4 1311.3 410.3Q1310.7 411.3 1309.7 411.9Q1308.8 412.4 1307.7 412.4ZM2130.5 412.4L2130.5 412.4Q2128.8 412.4 2127.5 411.2Q2126.3 410.0 2126.3 408.2L2126.3 408.2Q2126.3 406.5 2127.5 405.3Q2128.8 404.0 2130.5 404.0L2130.5 404.0Q2132.2 404.0 2133.4 405.3Q2134.7 406.5 2134.7 408.2L2134.7 408.2Q2134.7 409.4 2134.1 410.3Q2133.5 411.3 2132.6 411.9Q2131.6 412.4 2130.5 412.4Z" fill="#4A9E6E"></path></svg>